<svg viewBox="0 0 43 32" fill="none" xmlns="http://www.w3.org/2000/svg">
<path d="M2.66666 13.3333C1.95942 13.3333 1.28114 13.6143 0.781048 14.1144C0.280952 14.6145 0 15.2928 0 16C0 16.7072 0.280952 17.3855 0.781048 17.8856C1.28114 18.3857 1.95942 18.6667 2.66666 18.6667V13.3333ZM40 18.6667C40.7072 18.6667 41.3855 18.3857 41.8856 17.8856C42.3857 17.3855 42.6666 16.7072 42.6666 16C42.6666 15.2928 42.3857 14.6145 41.8856 14.1144C41.3855 13.6143 40.7072 13.3333 40 13.3333V18.6667ZM2.66666 0C1.95942 0 1.28114 0.280952 0.781048 0.781049C0.280952 1.28115 0 1.95942 0 2.66667C0 3.37391 0.280952 4.05219 0.781048 4.55228C1.28114 5.05238 1.95942 5.33333 2.66666 5.33333V0ZM40 5.33333C40.7072 5.33333 41.3855 5.05238 41.8856 4.55228C42.3857 4.05219 42.6666 3.37391 42.6666 2.66667C42.6666 1.95942 42.3857 1.28115 41.8856 0.781049C41.3855 0.280952 40.7072 0 40 0V5.33333ZM2.66666 26.6667C1.95942 26.6667 1.28114 26.9476 0.781048 27.4477C0.280952 27.9478 0 28.6261 0 29.3333C0 30.0406 0.280952 30.7189 0.781048 31.219C1.28114 31.7191 1.95942 32 2.66666 32V26.6667ZM40 32C40.7072 32 41.3855 31.7191 41.8856 31.219C42.3857 30.7189 42.6666 30.0406 42.6666 29.3333C42.6666 28.6261 42.3857 27.9478 41.8856 27.4477C41.3855 26.9476 40.7072 26.6667 40 26.6667V32ZM2.66666 18.6667H40V13.3333H2.66666V18.6667ZM2.66666 5.33333H40V0H2.66666V5.33333ZM2.66666 32H40V26.6667H2.66666V32Z" fill="currentColor"/>
</svg>
