<svg width="210" height="78" viewBox="0 0 210 78" fill="none" xmlns="http://www.w3.org/2000/svg">
<path d="M58.96 23.9C59.32 25.46 59.62 27.02 59.5 28.7C59.38 30.2 59.26 31.7 58.9 33.14C58.3 35.3 57.28 37.28 55.84 39.02C55.6 39.32 54.88 38.84 55 39.62C55.12 40.1 54.46 40.22 54.22 40.64C54.04 41.06 53.56 41.18 53.26 41.48C52.9 41.72 52.72 42.2 52.12 42.02C52.12 41.96 52 42.08 51.94 42.14C50.68 43.52 49.06 44.06 47.32 44.54C46.66 44.72 46 44.9 45.28 44.72C45.04 45.02 44.74 45.02 44.44 45.02C42.64 44.9 40.9 44.84 39.16 44.3C38.68 44.12 38.2 43.94 37.72 43.64C36.64 42.98 35.32 42.8 34.42 41.78C33.82 41.18 32.86 40.88 32.68 39.92C32.62 39.62 31.78 39.86 32.26 39.26C29.98 37.52 29.32 35 28.66 32.42C28.06 30.32 28.18 28.16 28.6 26.12C28.96 24.26 29.44 22.34 30.7 20.78C30.82 20.3 31.06 19.88 31.48 19.52C31.96 19.1 32.08 18.44 32.62 18.14C32.8 17.72 33.16 17.48 33.46 17.18C34.72 16.16 35.86 15.08 37.42 14.54C38.32 14.24 39.16 13.7 40.12 13.46C42.28 12.86 44.44 12.56 46.66 13.22C47.32 13.4 48.04 13.28 48.7 13.46C50.26 13.94 51.58 14.66 52.9 15.62C54.88 17 56.44 18.68 57.64 20.78C57.88 21.14 58.12 21.5 58.12 21.98C58.12 22.7 58.78 23.24 58.96 23.9ZM31.18 27.68H31.24H31.18ZM31.54 36.44C31.6 36.38 31.6 36.32 31.6 36.32C31.54 36.26 31.54 36.26 31.48 36.2C31.48 36.26 31.42 36.32 31.42 36.38C31.42 36.38 31.48 36.44 31.54 36.44ZM31.78 25.64V25.58H31.72L31.78 25.64ZM31.96 23.18H32.02L31.96 23.12V23.18ZM32.32 23.48L32.38 23.42H32.32V23.48ZM32.74 18.44C32.8 18.32 32.74 18.2 32.62 18.14C32.62 18.26 32.62 18.38 32.68 18.44C32.68 18.5 32.74 18.44 32.74 18.44ZM33.58 39.56V39.5L33.52 39.56H33.58ZM45.82 13.46C45.76 13.46 45.7 13.52 45.7 13.58C45.76 13.58 45.76 13.58 45.82 13.58C45.82 13.58 45.82 13.58 45.88 13.52C45.82 13.52 45.82 13.46 45.82 13.46ZM42.88 15.44V15.5V15.56L42.94 15.5C42.94 15.5 42.94 15.44 42.88 15.44ZM40.18 16.4L40.24 16.46C40.18 16.64 40.12 16.82 40.36 16.88C40.42 16.94 40.54 16.88 40.54 16.88C40.66 16.58 40.36 16.52 40.18 16.4ZM40.12 17.42C40.06 17.36 40.06 17.36 40 17.42C40 17.48 40 17.48 40.06 17.48C40.06 17.54 40.06 17.48 40.12 17.48V17.42ZM39.52 16.88V16.94V16.88ZM38.62 18.98C38.62 18.98 38.56 19.04 38.56 19.1C38.56 19.16 38.62 19.16 38.68 19.1C38.68 19.1 38.74 19.1 38.74 19.04C38.74 18.98 38.68 18.98 38.62 18.98ZM37.72 23.36C37.66 23.36 37.66 23.36 37.6 23.42C37.6 23.42 37.66 23.48 37.72 23.48C37.72 23.42 37.72 23.42 37.72 23.36ZM36.7 16.4C36.7 16.52 36.82 16.58 36.94 16.52C37.06 16.52 37.18 16.46 37.18 16.34C37.18 16.22 37.12 16.16 37 16.22C36.88 16.22 36.76 16.28 36.7 16.4ZM36.7 24.44L36.64 24.5H36.7V24.44ZM34.48 26.54H34.54V26.48H34.48C34.48 26.54 34.48 26.54 34.48 26.54ZM34.78 27.2C34.84 27.14 34.84 27.14 34.9 27.08C34.9 27.08 34.9 27.02 34.84 27.02C34.84 26.96 34.78 26.96 34.78 27.08C34.72 27.08 34.78 27.14 34.78 27.2ZM34.84 16.58H34.9V16.52L34.84 16.58ZM35.32 22.82L35.38 22.76L35.32 22.7L35.26 22.76L35.32 22.82ZM35.92 17V17.06L35.98 17H35.92ZM36.1 30.56C36.16 30.5 36.28 30.44 36.28 30.44C36.28 30.26 36.22 30.14 36.1 30.2C36.04 30.2 35.98 30.32 35.98 30.38C35.92 30.5 36.04 30.56 36.1 30.56ZM36.76 25.34C36.58 25.52 36.28 25.64 36.46 26C36.58 25.82 37.12 25.76 36.76 25.34ZM36.52 39.2V39.14H36.46L36.52 39.2ZM42.82 42.92C42.94 42.92 43 42.86 43 42.8C43 42.68 42.94 42.62 42.82 42.62C42.76 42.68 42.7 42.68 42.7 42.74C42.64 42.8 42.7 42.92 42.82 42.92ZM47.8 37.82L47.86 37.76C47.8 37.76 47.8 37.7 47.8 37.7L47.74 37.76L47.8 37.82ZM48.94 35.18C48.94 35.12 48.94 35.12 48.94 35.12C48.94 35.12 48.94 35.12 48.94 35.06C48.94 35.12 48.88 35.12 48.88 35.12C48.88 35.18 48.94 35.18 48.94 35.18ZM50.8 39.74L50.86 39.68L50.8 39.62V39.74ZM51.04 25.34C50.86 23.66 51.28 22.04 51.22 20.36C51.16 19.88 50.86 19.52 50.86 19.04C50.92 17.6 50.26 16.4 49.6 15.2C49.48 14.96 49.3 14.6 48.94 14.66C48.46 14.72 48.1 14.42 47.68 14.36C46.6 14.06 45.76 14.42 45.16 15.26C44.68 15.86 43.84 16.04 43.48 16.7C42.88 16.52 42.88 16.88 42.94 17.3C42.94 17.42 42.82 17.54 42.7 17.6C42.22 18.08 41.86 18.74 41.44 19.28C41.2 19.58 41.14 20 40.66 20.12C40.06 20.3 40.6 20.9 40.24 21.2C39.34 22.16 39.22 23.48 38.62 24.62C38.44 25.04 38.08 25.52 38.14 26C38.2 26.72 38.02 27.38 37.78 27.98C37.66 28.28 37.42 28.58 37.42 28.88C37.24 30.5 37.18 32.18 36.46 33.74C36.46 33.8 36.46 33.98 36.52 34.04C36.88 34.52 36.64 35.06 36.64 35.6C36.64 36.86 36.58 38.12 36.94 39.38C37.36 40.76 37.66 42.26 38.98 43.16C39.16 43.28 39.22 43.46 39.34 43.7C39.94 43.28 40.66 43.76 41.26 43.28C42.1 42.62 42.94 42.02 43.6 41.24C44.32 40.52 45.16 39.92 45.58 38.96C45.76 38.48 46.12 38.42 46.54 38.48C46.3 37.88 46.66 37.4 46.9 36.98C47.8 35.54 48.4 34.04 49.06 32.54C49.54 31.34 49.9 30.08 50.26 28.82C50.44 27.92 50.5 27.02 51.1 26.3C50.86 26.18 50.68 26.06 50.8 25.82C50.92 25.64 51.1 25.52 51.04 25.34ZM53.02 29.18C52.96 29.12 52.9 29.18 52.9 29.24L52.96 29.3C52.96 29.24 53.02 29.24 53.02 29.18ZM52.36 30.44C52.36 30.5 52.3 30.56 52.3 30.62C52.3 30.68 52.36 30.68 52.42 30.68C52.48 30.62 52.48 30.56 52.54 30.5C52.48 30.5 52.42 30.44 52.36 30.44ZM51.58 32.3H51.64L51.58 32.24V32.3ZM51.88 31.52C52.06 31.88 52.3 31.88 52.6 31.88C52.36 31.76 52.24 31.46 51.88 31.52ZM52.66 31.94C52.66 32 52.66 32 52.66 31.94V31.94ZM53.2 40.1C53.2 40.1 53.2 40.04 53.2 39.98C53.2 39.92 53.14 39.92 53.08 39.92C53.08 39.92 53.08 39.98 53.02 40.04C53.08 40.1 53.14 40.1 53.2 40.1ZM52.84 30.38C53.08 30.62 53.2 30.32 53.44 30.32C53.26 30.2 53.14 29.9 52.9 30.08C52.78 30.14 52.78 30.32 52.84 30.38ZM54.16 32.84V32.78L54.1 32.72C54.04 32.78 54.1 32.84 54.16 32.84ZM54.76 26.12L54.82 26.18C54.82 26.18 54.88 26.12 54.76 26.12ZM57.28 35.42C57.34 35.42 57.4 35.42 57.4 35.36C57.4 35.3 57.34 35.24 57.34 35.24C57.22 35.24 57.22 35.24 57.22 35.36L57.28 35.42ZM57.46 23.84C57.46 23.78 57.52 23.78 57.52 23.78V23.72C57.46 23.72 57.46 23.72 57.4 23.72C57.4 23.78 57.46 23.78 57.46 23.84ZM57.82 30.92C57.82 30.86 57.82 30.86 57.82 30.8C57.82 30.8 57.82 30.8 57.82 30.86C57.82 30.86 57.82 30.86 57.82 30.92ZM57.88 30.74C58 30.68 58.06 30.62 57.94 30.5C57.94 30.56 57.88 30.68 57.88 30.74ZM58.36 25.46V25.4V25.46ZM58.84 26.48C58.9 26.54 58.9 26.54 58.9 26.48H58.84ZM86.6711 22.52C86.1311 23.6 85.8311 25.04 85.6511 26.24C85.5311 26.9 85.4711 27.56 85.4711 28.22C85.4711 28.4 85.4711 28.7 85.2311 28.82C84.7511 29 84.8111 29.12 85.2911 29.18C85.4111 29.18 85.3511 29.42 85.3511 29.54C85.1111 30.68 85.2311 31.82 85.2311 33.02C85.2911 33.92 85.2911 34.82 85.3511 35.66C85.5311 38.18 86.1311 40.52 87.2111 42.8C87.3311 43.04 87.5711 43.28 87.8111 43.58C87.9311 43.7 88.2911 43.7 88.1711 44.06C88.0511 44.36 87.7511 44.3 87.5711 44.36C86.6711 44.42 85.8311 44.48 84.9911 44.48C83.1311 44.42 81.2711 44.36 79.4111 44.3C78.2711 44.3 78.0311 44.12 78.0911 42.98C78.0911 41.66 77.7911 40.4 77.9711 39.2C77.4911 39.62 76.9511 40.1 76.4711 40.52C76.4711 39.98 76.2311 40.34 76.0511 40.4C76.1711 40.46 76.2911 40.52 76.4111 40.52C75.8111 41.54 74.6711 41.96 73.7111 42.68C73.5911 42.8 73.4111 42.56 73.2311 42.62C72.8711 43.28 71.9711 43.58 71.3111 43.22C71.1911 43.16 71.1311 43.16 71.0711 43.4C71.0111 43.64 70.8311 43.76 70.5911 43.7C70.1111 43.64 69.6911 43.64 69.2111 43.7C68.6711 43.82 68.1311 43.64 67.5911 43.58C66.9911 43.46 66.5111 43.1 66.0311 42.8C65.5511 42.62 65.7911 42.26 65.7911 41.78C65.4311 42.26 65.1311 42.08 64.8911 41.78C63.9911 40.4 63.3311 38.96 63.2111 37.28C63.2111 37.28 63.1511 37.22 63.1511 37.16C62.9711 36.44 63.2111 35.72 62.9711 34.94C62.6711 34.22 62.7911 33.26 62.8511 32.42C62.8511 31.64 62.7311 30.8 62.9711 30.02C63.0311 29.66 62.8511 29.3 62.8511 28.94C62.8511 27.68 62.8511 26.48 62.6711 25.28C62.4311 23.36 61.5911 21.92 59.7311 21.2C59.6111 21.14 59.5511 21.08 59.4911 21.02C60.2111 20.48 61.0511 20.6 61.8311 20.54C62.7311 20.54 63.6311 20.48 64.5311 20.42C66.3911 20.42 68.3111 20.48 70.1711 20.54C70.5911 20.54 70.5911 20.78 70.5311 21.08C70.3511 22.52 70.2311 23.96 69.9911 25.4C69.7511 26.36 69.9911 27.32 69.6911 28.28C69.7511 28.34 69.8111 28.46 69.8111 28.58C69.4511 30.68 69.9311 32.78 69.9311 34.88C69.9311 35.6 70.1111 36.32 70.2911 37.04C70.3511 37.4 70.8311 37.34 70.8311 37.7C71.0111 37.94 71.1911 38.18 71.3711 38.42C72.2111 39.5 73.5311 39.74 74.7311 39.14C74.9711 39.02 75.2111 38.9 75.4511 38.72C75.8111 38.48 76.0511 38.54 76.3511 38.96C76.2311 38.48 76.1711 38.18 76.5911 37.94C77.6111 37.4 77.8511 36.56 77.7311 35.42C77.6111 33.56 77.7311 31.64 77.6711 29.72C77.6111 27.68 77.6111 25.58 77.1911 23.54C77.0111 22.76 76.1111 22.58 75.9911 21.8C75.3311 22.4 75.0911 21.32 74.5511 21.5C74.3711 21.56 74.2511 21.56 74.1911 21.32C74.1911 21.14 74.3711 21.2 74.4311 21.14C74.8511 20.48 75.5111 20.78 76.0511 20.84C76.2911 20.84 76.5311 20.9 76.8311 20.78C77.4311 20.54 78.0311 20.9 78.6311 20.9C78.8111 20.9 78.8711 21.2 79.0511 20.78C79.1711 20.6 79.5911 20.78 79.8311 20.9C80.1911 20.48 80.6711 20.84 81.1511 20.78C83.3711 20.66 85.6511 20.66 87.9311 20.72C88.1111 20.72 88.2911 20.78 88.4711 20.78C88.3511 21.08 88.2311 21.38 87.8711 21.44C87.2111 21.5 86.9111 21.98 86.6711 22.52ZM75.3911 21.44L75.4511 21.38C75.4511 21.38 75.3911 21.38 75.3911 21.32L75.3311 21.38L75.3911 21.44ZM62.0711 21.92C62.0711 21.86 62.0711 21.86 62.0711 21.8C62.0711 21.8 62.0711 21.8 62.0111 21.74L61.9511 21.8C61.9511 21.86 62.0111 21.92 62.0711 21.92ZM62.3711 22.4C62.3711 22.4 62.4311 22.34 62.4311 22.28C62.4311 22.28 62.3711 22.28 62.3711 22.22C62.3111 22.28 62.3111 22.34 62.3111 22.34C62.3111 22.4 62.3711 22.4 62.3711 22.4ZM62.7311 21.8V21.74C62.7311 21.74 62.7311 21.74 62.6711 21.74C62.6711 21.74 62.6711 21.74 62.6711 21.8H62.7311ZM62.9711 26.36C63.0311 26.3 63.0911 26.3 63.1511 26.3C63.0911 26.24 63.0911 26.24 63.0911 26.24C63.0311 26.24 62.9711 26.24 62.9111 26.3L62.9711 26.36ZM64.6511 21.86C64.6511 21.92 64.5911 21.92 64.5911 21.92L64.6511 21.98C64.6511 21.98 64.7111 21.98 64.7111 21.92C64.7111 21.92 64.6511 21.92 64.6511 21.86ZM64.6511 23.72C64.5911 23.72 64.5311 23.84 64.5911 23.84C64.5911 23.9 64.6511 23.96 64.7711 24.02C64.8311 24.02 64.8311 23.96 64.7711 23.84C64.7711 23.84 64.7111 23.78 64.6511 23.72ZM64.4711 24.38L64.4111 24.44C64.4111 24.5 64.4711 24.56 64.4711 24.62C64.4711 24.56 64.5311 24.56 64.5311 24.56C64.5311 24.5 64.4711 24.44 64.4711 24.38ZM64.1711 32.24C64.1111 32.18 64.1111 32.12 64.1111 32.12C64.0511 32.12 64.0511 32.12 64.0511 32.18C64.0511 32.24 64.0511 32.24 64.1111 32.3C64.1111 32.3 64.1111 32.24 64.1711 32.24ZM64.0511 21.86C64.0511 21.92 64.0511 21.98 64.0511 22.04C64.0511 21.98 64.1111 21.92 64.0511 21.86ZM63.9911 22.1C63.9311 22.1 63.9311 22.1 63.9311 22.1C63.9911 22.1 63.9911 22.1 63.9911 22.1ZM63.9911 31.52C63.9911 31.52 63.9911 31.52 63.9311 31.52C63.9911 31.58 63.9911 31.58 63.9911 31.58C64.0511 31.64 64.1111 31.58 64.1111 31.52C64.1111 31.52 64.0511 31.52 63.9911 31.52ZM64.2911 39.14V39.08V39.14ZM64.8311 37.94C64.9511 37.52 64.2911 37.7 64.2911 37.4C64.1711 37.46 63.9911 37.58 63.9911 37.7C63.9311 37.94 64.1711 38 64.3511 38.06C64.4711 38 64.5311 38 64.5911 38.06C64.6511 38.06 64.8311 38 64.8311 37.94ZM64.8311 33.5C64.9511 33.44 64.8911 33.44 64.8311 33.38C64.7711 33.38 64.7111 33.38 64.6511 33.38C64.7111 33.38 64.7111 33.44 64.7711 33.5H64.8311ZM65.1911 25.04V25.1C65.1911 25.16 65.2511 25.16 65.2511 25.1C65.2511 25.04 65.2511 25.04 65.2511 24.98C65.2511 24.98 65.1911 24.98 65.1911 25.04ZM65.0711 32.84C65.0111 32.9 65.0111 32.9 65.0711 32.96L65.1311 32.9V32.84H65.0711ZM65.0111 39.38C65.0111 39.44 65.0711 39.44 65.0711 39.32H65.0111V39.38ZM65.0711 36.32C65.1911 36.32 65.2511 36.26 65.3111 36.14L65.2511 36.08C65.1911 36.14 65.1311 36.14 65.0711 36.2C65.0111 36.26 65.0111 36.26 65.0711 36.32ZM65.5511 28.76H65.6111V28.7L65.5511 28.76ZM69.6311 21.62C69.5711 21.38 69.3911 21.5 69.2711 21.5C69.3311 21.62 69.3911 21.8 69.5711 21.74L69.6311 21.62ZM66.6311 24.02C66.6911 24.08 66.7511 24.08 66.8111 24.08C66.8111 24.08 66.8111 24.08 66.8111 24.14C66.8111 24.02 66.8111 23.96 66.6911 23.96C66.6311 23.96 66.6311 24.02 66.6311 24.02ZM66.7511 26.84L66.6911 26.78V26.84H66.7511ZM66.8111 21.56C66.6911 21.44 66.5111 21.44 66.3911 21.56C66.5111 21.68 66.6911 21.68 66.8111 21.56ZM66.5711 22.52V22.46C66.5111 22.46 66.5111 22.46 66.5111 22.52C66.5111 22.52 66.5111 22.52 66.5711 22.58C66.5711 22.52 66.5711 22.52 66.5711 22.52ZM66.3911 33.62C66.3311 33.62 66.2711 33.62 66.2111 33.62V33.68C66.2711 33.68 66.3311 33.68 66.3911 33.68V33.62ZM65.9711 24.02C65.9711 24.08 65.9111 24.08 65.9111 24.14C65.9111 24.2 65.9711 24.2 65.9711 24.2C65.9711 24.2 66.0311 24.14 66.0311 24.08C66.0311 24.08 66.0311 24.02 65.9711 24.02ZM65.9711 24.92C65.9711 24.98 65.9111 25.04 65.9111 25.1C65.9111 25.1 65.9711 25.1 65.9711 25.16C65.9711 25.1 66.0311 25.04 66.0311 24.98C66.0311 24.98 65.9711 24.98 65.9711 24.92ZM66.2111 38.24C66.2111 38.06 66.0311 38.06 65.9111 38.06C65.9111 38.18 65.9711 38.24 66.0311 38.3C66.1511 38.36 65.8511 38.6 66.1511 38.54C66.2711 38.54 66.2711 38.36 66.2111 38.24ZM65.8511 38.06C65.8511 38 65.8511 38 65.7911 38L65.8511 38.06ZM65.7311 40.94C65.7311 41.06 65.7911 41.06 65.8511 41.06C65.8511 41 65.8511 40.94 65.7911 40.88C65.7311 40.88 65.7311 40.94 65.7311 40.94ZM65.9111 41.06C65.9111 41.3 66.0311 41.48 66.3311 41.6C66.2711 41.3 66.2711 41 65.9111 41.06ZM66.4511 39.92C66.5111 39.92 66.6311 39.92 66.6311 39.8C66.6311 39.68 66.6311 39.62 66.5111 39.62C66.3911 39.62 66.3311 39.68 66.3311 39.8C66.3311 39.86 66.3311 39.92 66.4511 39.92ZM66.9311 33.08C66.9311 33.14 66.9911 33.08 66.9911 33.08C66.9911 33.02 66.9311 33.02 66.9311 33.02C66.9311 33.02 66.9311 33.02 66.8711 33.08H66.9311ZM66.9311 27.8C67.0511 27.74 66.9911 27.62 66.9911 27.5C66.8711 27.44 66.6911 27.32 66.6311 27.56C66.6311 27.68 66.8111 27.8 66.9311 27.8ZM67.0511 42.68H67.1711L67.1111 42.62L67.0511 42.68ZM67.0511 42.02C67.0511 42.08 67.1111 42.14 67.1111 42.02C67.1711 42.02 67.1711 41.96 67.1111 41.96C67.1111 41.96 67.1111 41.96 67.0511 41.96V42.02ZM67.0511 34.46C67.1111 34.46 67.1111 34.4 67.1711 34.34C67.1711 34.28 67.1111 34.22 67.0511 34.28L66.9911 34.34C66.9911 34.4 66.9911 34.46 67.0511 34.46ZM67.0511 28.52L67.1111 28.58V28.52H67.0511ZM66.9911 23C67.0511 22.94 67.1711 22.94 67.1711 22.82C67.1711 22.82 67.1711 22.82 67.1111 22.76C67.1111 22.82 67.0511 22.94 66.9911 23ZM67.3511 30.14C67.3511 30.08 67.3511 30.02 67.3511 29.96H67.2911C67.2911 30.02 67.2311 30.08 67.2311 30.14C67.2911 30.2 67.2911 30.2 67.3511 30.14ZM67.5911 37.04C67.5911 37.04 67.6511 37.04 67.6511 36.98C67.6511 36.92 67.5911 36.92 67.5311 36.92C67.5311 36.98 67.4711 36.98 67.4711 37.04C67.4711 37.04 67.5311 37.04 67.5911 37.04ZM67.6511 31.22C67.6511 31.16 67.6511 31.1 67.7111 31.04C67.6511 30.98 67.5911 30.92 67.5311 30.92C67.4711 30.92 67.4711 31.04 67.4711 31.1C67.4711 31.16 67.5311 31.22 67.6511 31.22ZM67.8911 24.2C67.8311 24.2 67.8311 24.26 67.8311 24.26C67.8311 24.32 67.8311 24.38 67.8311 24.44C67.8911 24.38 67.8911 24.38 67.8911 24.38C67.8911 24.32 67.8911 24.26 67.8911 24.2ZM67.8311 25.52V25.58L67.8911 25.52H67.8311ZM68.0711 29.36V29.3H68.0111L68.0711 29.36ZM67.8911 26.9C67.9511 26.96 68.0711 26.96 68.1311 26.84C68.0711 26.84 68.0711 26.78 68.0711 26.72C68.0111 26.72 67.9511 26.72 67.8911 26.78V26.9ZM68.2511 29.84C68.2511 29.84 68.2511 29.84 68.2511 29.78C68.2511 29.78 68.2511 29.78 68.2511 29.72C68.1911 29.78 68.1911 29.78 68.1911 29.78C68.1911 29.84 68.1911 29.84 68.2511 29.84ZM68.1311 23.42C68.3711 23.18 68.3111 22.88 68.3111 22.64C68.1311 22.82 67.8911 23 68.1311 23.42ZM68.4311 26.24C68.4311 26.24 68.4911 26.24 68.4911 26.18C68.4911 26.18 68.4311 26.12 68.4311 26.06C68.3711 26.06 68.3711 26.12 68.3711 26.12C68.3711 26.18 68.3711 26.24 68.4311 26.24ZM68.3711 22.58C68.4911 22.52 68.5511 22.46 68.6111 22.34L68.5511 22.28C68.3711 22.34 68.3711 22.46 68.3711 22.58ZM68.7911 38.54L68.8511 38.48L68.7911 38.54ZM68.7911 26.48H68.8511L68.7911 26.42V26.48ZM68.8511 25.4V25.34H68.7911L68.8511 25.4ZM69.1511 41.96H69.2111V41.9L69.1511 41.96ZM69.1511 41.36H69.2111L69.1511 41.3V41.36ZM69.1511 24.08C69.0911 24.26 69.2111 24.38 69.3311 24.38C69.6311 24.5 69.6311 24.14 69.8711 23.96C69.5111 23.78 69.3911 24.2 69.1511 24.08ZM69.4511 26.12C69.5111 26.06 69.4511 26.06 69.3911 26.06C69.3911 26.06 69.3911 26.06 69.3311 26.12C69.3911 26.12 69.3911 26.12 69.4511 26.12ZM69.6311 28.34V28.28L69.5711 28.34H69.6311ZM69.7511 42.74V42.68H69.6911L69.7511 42.74ZM70.3511 38.24H70.4111C70.2911 38.24 70.2311 38.3 70.1711 38.36C70.2311 38.36 70.2311 38.36 70.2311 38.36C70.2911 38.3 70.3511 38.3 70.3511 38.24ZM70.5911 39.2C70.5311 39.2 70.4711 39.2 70.4711 39.26C70.4711 39.38 70.5311 39.38 70.5911 39.38C70.5911 39.32 70.6511 39.32 70.6511 39.26C70.6511 39.26 70.5911 39.26 70.5911 39.2ZM70.7111 43.16C70.7711 43.04 70.7111 42.98 70.6511 42.98C70.5911 42.98 70.5311 43.04 70.4711 43.04C70.4711 43.16 70.4711 43.22 70.5911 43.22C70.5911 43.22 70.6511 43.16 70.7111 43.16ZM70.6511 40.04C70.7111 40.04 70.7111 40.04 70.7111 39.92C70.7111 39.92 70.7111 39.86 70.6511 39.8C70.5911 39.86 70.5911 39.86 70.5911 39.92C70.6511 39.98 70.6511 39.98 70.6511 40.04ZM70.5911 37.82C70.6511 37.82 70.7111 37.76 70.7711 37.7C70.6511 37.7 70.5911 37.7 70.5311 37.76L70.5911 37.82ZM71.7311 40.76C71.7311 40.76 71.7311 40.76 71.7311 40.7C71.7311 40.76 71.7311 40.76 71.7311 40.76ZM71.9111 40.28C71.9711 40.22 71.9711 40.22 71.9111 40.16C71.8511 40.16 71.8511 40.22 71.7911 40.22C71.8511 40.22 71.7911 40.28 71.8511 40.28H71.9111ZM72.1511 42.92C72.1511 42.92 72.2711 42.92 72.1511 42.86V42.92ZM72.3311 41.78C72.3911 41.66 72.2111 41.72 72.1511 41.66C72.0911 41.66 72.0311 41.66 71.9711 41.72C71.9711 41.84 72.0911 41.84 72.1511 41.9C72.2111 41.9 72.3311 41.84 72.3311 41.78ZM72.3911 40.46L72.4511 40.4H72.3911V40.46ZM72.7511 41L72.8111 40.94H72.7511V41ZM72.9911 41.9C73.0511 41.9 73.1111 41.78 73.1711 41.72C73.1111 41.72 73.0511 41.72 73.0511 41.66C72.9311 41.72 72.8711 41.78 72.8711 41.84C72.9311 41.96 72.9311 41.96 72.9911 41.9ZM73.1111 42.5C73.1111 42.5 73.1711 42.56 73.2311 42.56C73.2311 42.5 73.2311 42.44 73.1111 42.5ZM73.8911 39.8C73.8311 39.86 73.8311 39.92 73.8311 39.92C73.8911 39.92 73.9511 39.92 73.8911 39.8ZM73.8911 42.14L73.9511 42.08L73.8911 42.02C73.8311 42.08 73.8311 42.08 73.8911 42.14ZM74.3111 40.58C74.4911 40.22 73.8311 40.46 73.8311 40.1C73.8311 40.04 73.8311 39.98 73.7711 39.98C73.6511 40.1 73.5311 40.28 73.4111 40.46C73.7111 40.64 74.1311 40.88 74.3111 40.58ZM76.5911 39.56C76.6511 39.5 76.6511 39.5 76.7111 39.5C76.7111 39.44 76.6511 39.44 76.6511 39.38C76.5911 39.44 76.5311 39.44 76.5311 39.5L76.5911 39.56ZM79.2311 43.46H79.2911L79.2311 43.4V43.46ZM79.8911 20.96C79.8911 20.96 79.8911 20.96 79.8311 20.96C79.8311 20.96 79.8311 20.96 79.8911 20.96ZM79.5911 27.26C79.6511 27.26 79.7111 27.2 79.7711 27.2C79.7111 27.2 79.7111 27.14 79.7111 27.14C79.6511 27.14 79.5911 27.2 79.5311 27.2C79.5911 27.2 79.5911 27.26 79.5911 27.26ZM79.8311 23.3C79.8911 23.3 79.8911 23.3 79.9511 23.3C79.8911 23.3 79.8311 23.3 79.7711 23.24C79.8311 23.3 79.8311 23.3 79.8311 23.3ZM80.0111 43.1C80.0111 43.04 80.0111 43.04 79.9511 43.04C79.9511 43.04 79.9511 43.04 79.9511 43.1C79.9511 43.1 79.9511 43.1 80.0111 43.1ZM80.1911 24.98C80.1911 24.98 80.1911 24.98 80.2511 24.92C80.1911 24.92 80.1911 24.92 80.1311 24.92V24.98H80.1911ZM80.7911 42.74C80.9111 42.74 80.9111 42.68 80.9711 42.68C80.9111 42.62 80.8511 42.56 80.7911 42.56C80.6711 42.5 80.6111 42.5 80.6111 42.56C80.6711 42.62 80.7311 42.68 80.7911 42.74ZM80.9711 25.7C81.0311 25.76 81.0911 25.7 81.1511 25.64C81.1511 25.52 81.0911 25.46 81.0311 25.46C80.9711 25.46 80.9111 25.52 80.8511 25.52C80.9111 25.58 80.9111 25.64 80.9711 25.7ZM81.3911 23.18C81.4511 23.12 81.5111 23.12 81.5111 23.06C81.5111 23.06 81.4511 23 81.3911 23C81.3311 23 81.2711 23 81.2711 23.06C81.2711 23.06 81.3311 23.12 81.3911 23.18ZM82.1111 23.48C82.1711 23.48 82.1111 23.42 82.0511 23.42C81.9911 23.42 81.9311 23.42 81.9311 23.48C81.9311 23.48 81.9911 23.48 82.0511 23.54C82.0511 23.54 82.1111 23.54 82.1111 23.48ZM82.8911 24.74C82.8911 24.68 82.8911 24.68 82.8911 24.68C82.8911 24.62 82.8911 24.62 82.8311 24.62C82.7711 24.62 82.7711 24.68 82.8311 24.74C82.8311 24.74 82.8311 24.74 82.8911 24.74ZM84.9311 37.58L84.8711 37.52C84.8711 37.52 84.8711 37.58 84.8111 37.58C84.8711 37.58 84.8711 37.64 84.9311 37.64V37.58ZM97.2231 33.2C97.2231 33.2 97.2231 33.26 97.2831 33.26C97.2231 33.26 97.2231 33.26 97.2231 33.26V33.2ZM112.763 36.44C113.003 37.46 112.703 38.54 112.343 39.38C111.743 40.58 111.083 41.78 109.703 42.62C108.623 43.28 107.423 43.64 106.223 43.94C104.183 44.42 102.083 44.24 99.9831 43.88C99.1431 43.76 98.3031 43.34 97.4631 43.46C96.5031 43.64 95.5431 43.46 94.6431 43.64C93.8031 43.82 93.0831 44 92.3631 44.48C91.8831 44.78 91.5831 44.66 91.4031 44.06C91.2831 43.64 91.1031 43.22 91.3431 42.8C91.5231 42.44 90.9831 42.38 90.9831 42.02C90.7431 40.28 90.4431 38.6 90.5031 36.8C90.5031 35.96 90.5031 35.12 90.5631 34.34C90.5631 34.16 90.5631 33.98 90.7431 33.92C90.9231 33.86 90.9831 34.04 91.0431 34.16C91.4031 34.64 91.7031 35.12 91.9431 35.72C92.3631 36.62 92.9631 37.52 93.5631 38.3C93.8631 38.72 93.9231 38.96 93.6831 39.38C94.1031 39.02 94.4031 39.26 94.7031 39.5C96.1431 40.76 97.8231 41.3 99.7431 41.54C100.703 41.66 101.603 41.78 102.563 41.66C104.303 41.36 105.143 40.1 104.663 38.48C104.483 37.7 103.943 37.1 103.943 36.32C103.943 36.14 103.823 36.14 103.703 36.08C102.983 35.9 102.443 35.36 102.023 34.82C101.723 34.4 101.243 34.52 100.883 34.4C99.9231 34.22 99.0831 33.8 98.1231 33.56C97.8831 33.56 97.8231 33.32 97.6431 33.2V33.26C97.5831 33.26 97.5831 33.26 97.5831 33.26C97.5831 33.2 97.5831 33.2 97.6431 33.2C97.5231 33.02 97.4031 33.02 97.2231 33.08C97.2231 33.08 97.2231 33.14 97.2231 33.2C95.9031 32.96 94.6431 32.6 93.6831 31.52C93.5031 31.28 93.3831 31.22 93.1431 31.4C93.0231 31.52 92.9031 31.28 92.7231 31.22C92.8431 31.16 93.0231 31.22 92.9631 31.04C92.9031 30.92 92.7231 30.98 92.6631 31.1C92.0631 30.5 91.4031 29.9 91.5831 28.94C91.5831 28.76 91.4631 28.7 91.3431 28.58C90.9831 28.22 90.6831 27.74 91.1031 27.2C91.1631 27.08 91.2231 26.96 91.1031 26.84C90.5631 26.42 90.9231 26.06 91.1631 25.64C90.9231 25.4 91.0431 25.16 91.2231 24.92C91.5831 23.18 92.7831 22.1 94.1031 21.08C95.3031 20.12 96.4431 19.28 98.0031 18.92C98.6631 18.8 99.3231 18.44 100.043 18.38C100.523 18.26 101.843 18.38 102.323 18.26C103.163 18.08 103.883 18.26 104.723 18.44C105.503 18.62 106.463 18.44 107.003 19.22C107.903 19.04 108.563 19.64 109.223 19.94C111.563 21.08 112.823 23.3 112.343 25.82C111.923 27.98 109.883 29.72 107.423 28.7C106.883 28.46 106.523 28.04 106.103 27.74H106.043C105.023 26.36 105.203 24.98 105.923 23.54C106.283 22.94 106.463 22.22 106.103 21.5C105.563 20.54 104.603 20.18 103.643 19.88C103.523 19.88 103.403 19.82 103.283 19.82H103.223C103.283 19.88 103.223 19.88 103.223 19.88C103.223 19.82 103.223 19.82 103.223 19.82C101.903 19.7 100.583 19.94 99.3231 20.48C97.7631 21.14 97.1031 22.04 97.2231 23.78C97.2831 24.08 97.0431 24.38 97.2231 24.68C97.9431 26.06 98.9631 27.2 100.403 27.86C101.123 28.16 102.023 28.16 102.623 28.82C102.803 28.94 103.163 28.82 103.463 28.76C103.763 28.76 103.703 29.48 104.243 29.06C104.423 28.94 104.963 29.18 105.323 29.36C105.743 29.48 106.103 29.78 106.523 29.96C106.943 30.08 107.363 30.2 107.783 30.38C108.143 30.5 108.503 30.68 108.863 30.92C109.223 31.16 109.583 31.4 109.943 31.64C111.623 32.78 112.283 34.52 112.763 36.44ZM111.863 23.48L111.803 23.54H111.863V23.48ZM110.063 24.8L110.003 24.86H110.063V24.8ZM109.883 26.18V26.24L109.943 26.18H109.883ZM109.403 24.98L109.343 25.04H109.403V24.98ZM109.043 22.52L108.983 22.58H109.043V22.52ZM108.863 23.48C108.803 23.54 108.803 23.54 108.743 23.6C108.803 23.72 108.863 23.72 108.923 23.72C108.983 23.72 108.983 23.72 109.043 23.72C108.983 23.66 108.923 23.54 108.863 23.48ZM107.903 25.16C107.903 25.22 107.843 25.28 107.843 25.28C107.843 25.34 107.903 25.34 107.903 25.34C107.903 25.34 107.963 25.28 107.963 25.22C107.963 25.22 107.903 25.22 107.903 25.16ZM107.543 26.48C107.483 26.54 107.483 26.6 107.543 26.6L107.603 26.54C107.603 26.54 107.603 26.54 107.603 26.48H107.543ZM107.123 24.02V24.08H107.183L107.123 24.02ZM106.943 24.98C106.883 25.04 106.943 25.04 107.003 25.04C107.003 25.04 107.003 25.04 107.063 25.04C107.063 24.98 107.003 24.98 107.003 24.98H106.943ZM106.883 26.9H106.823C106.883 26.96 106.883 26.96 106.883 26.96L106.943 26.9C106.883 26.9 106.883 26.9 106.883 26.9ZM106.283 21.26C106.103 21.26 106.103 21.38 106.103 21.5C106.223 21.56 106.403 21.56 106.403 21.32C106.403 21.32 106.343 21.26 106.283 21.26ZM91.2231 24.92C91.2231 24.98 91.1631 25.1 91.3431 25.04C91.2831 24.98 91.2231 24.98 91.2231 24.92ZM91.5831 25.64C91.5831 25.64 91.5831 25.58 91.5231 25.58C91.4031 25.46 91.2831 25.58 91.1631 25.64C91.2831 25.7 91.4031 25.7 91.5831 25.64ZM92.2431 25.1V24.98L92.1831 25.04L92.2431 25.1ZM96.5631 21.8L96.5031 21.86H96.5631V21.8ZM93.7431 25.94C93.6831 26.06 93.7431 26.06 93.8631 26.06C93.9231 26.06 93.9831 26 93.9831 26C93.9831 25.94 93.9231 25.94 93.9231 25.88C93.8631 25.88 93.7431 25.88 93.7431 25.94ZM93.2631 24.26C93.2631 24.2 93.1431 24.26 93.1431 24.38C93.2031 24.32 93.3831 24.38 93.2631 24.26ZM93.0231 24.38V24.44C93.0231 24.44 93.0231 24.44 93.0831 24.38C93.0231 24.38 93.0231 24.38 93.0231 24.38ZM93.0231 26.54C92.9631 26.48 92.9631 26.54 92.9631 26.6V26.66C93.0231 26.66 93.0231 26.66 93.0231 26.6V26.54ZM93.6231 29.42C93.6831 29.42 93.7431 29.42 93.7431 29.36C93.7431 29.36 93.7431 29.3 93.6831 29.3C93.6831 29.3 93.6231 29.36 93.5631 29.36L93.6231 29.42ZM93.5631 27.74C93.8031 27.8 93.8031 27.56 93.8031 27.38C93.5031 27.56 93.1431 27.14 92.7231 27.5C93.0831 27.62 93.3231 27.62 93.5631 27.74ZM93.8631 27.38C93.9231 27.38 94.0431 27.32 94.0431 27.2C93.9231 27.2 93.8631 27.26 93.8631 27.38ZM94.0431 27.2C94.1031 27.2 94.0431 27.26 94.1031 27.14C94.1031 27.14 94.0431 27.14 94.0431 27.2ZM94.2231 23.36C94.3431 23.36 94.3431 23.3 94.2831 23.24C94.2831 23.18 94.1631 23.18 94.1031 23.12C94.1031 23.18 94.0431 23.18 94.0431 23.24C94.1031 23.36 94.1631 23.42 94.2231 23.36ZM94.7031 29.24V29.18H94.6431L94.7031 29.24ZM94.8831 29.96V29.9V29.96ZM95.0031 28.46H95.0631V28.4L95.0031 28.46ZM95.0031 25.28C95.0631 25.28 95.1231 25.22 95.1831 25.16C95.0631 25.16 95.0031 25.16 94.9431 25.16C94.8831 25.22 94.8831 25.28 95.0031 25.28ZM95.2431 22.58C95.2431 22.58 95.3031 22.58 95.3031 22.52C95.3031 22.52 95.3031 22.46 95.2431 22.4L95.1831 22.46C95.1831 22.52 95.2431 22.58 95.2431 22.58ZM95.6031 29.42L95.6631 29.36H95.6031V29.42ZM96.3231 29.78C96.3831 29.78 96.3831 29.72 96.3831 29.72H96.3231C96.2631 29.72 96.2631 29.78 96.3231 29.78ZM96.5631 24.14C96.6231 24.14 96.6231 24.08 96.6231 24.02C96.6231 24.02 96.6231 23.96 96.5631 23.96C96.5631 23.96 96.5631 24.02 96.5031 24.02C96.5031 24.08 96.5031 24.14 96.5631 24.14ZM97.1031 26.96H97.1631C97.1631 26.9 97.1631 26.9 97.1631 26.9C97.1631 26.84 97.1031 26.84 97.1031 26.84C97.0431 26.9 97.0431 26.9 97.1031 26.96ZM97.1631 33.02H97.2231C97.2231 32.96 97.1631 32.96 97.1631 33.02ZM97.4631 27.68C97.5231 27.56 97.7631 27.62 97.7031 27.38C97.6431 27.26 97.5831 27.2 97.5231 27.08C97.4031 27.2 97.2231 27.32 97.1631 27.5C97.1631 27.62 97.2831 27.68 97.4631 27.68ZM98.0631 27.62H98.1231L98.0631 27.56V27.62ZM98.6631 29.48C98.6631 29.54 98.6031 29.54 98.6031 29.54C98.6031 29.54 98.6031 29.6 98.6631 29.6L98.7231 29.54C98.7231 29.54 98.6631 29.54 98.6631 29.48ZM98.4231 31.4C98.4831 31.58 98.6631 31.52 98.8431 31.4C98.6631 31.34 98.5431 31.28 98.4231 31.28C98.4231 31.28 98.3631 31.4 98.4231 31.4ZM98.7831 28.94C98.9031 28.7 99.0831 28.58 98.7831 28.22C98.8431 28.52 98.5431 28.64 98.7831 28.94ZM99.4431 29.96V29.9H99.3831L99.4431 29.96ZM99.3831 28.7C99.3831 28.64 99.4431 28.64 99.4431 28.64C99.4431 28.58 99.4431 28.58 99.3831 28.58C99.3831 28.58 99.3231 28.58 99.3231 28.64C99.3231 28.64 99.3831 28.64 99.3831 28.7ZM100.703 30.74L100.763 30.68H100.703V30.74ZM101.063 30.68H101.123V30.62L101.063 30.68ZM101.303 31.28V31.22H101.243L101.303 31.28ZM102.023 33.14H102.083L102.023 33.08V33.14ZM102.743 30.14C102.863 30.14 102.983 30.08 102.923 29.96C102.863 29.78 102.563 29.84 102.203 29.6C102.443 29.96 102.443 30.2 102.743 30.14ZM103.643 30.74C103.643 30.68 103.643 30.68 103.643 30.68H103.583L103.643 30.74ZM103.883 31.52C103.943 31.52 103.943 31.52 103.943 31.52V31.46H103.883C103.883 31.52 103.883 31.52 103.883 31.52ZM104.183 34.76C104.183 34.7 104.243 34.58 104.063 34.64C104.123 34.7 104.123 34.7 104.183 34.76ZM104.483 31.94C104.543 31.88 104.543 31.82 104.543 31.82C104.543 31.76 104.543 31.7 104.483 31.64C104.483 31.7 104.423 31.76 104.423 31.82C104.423 31.82 104.483 31.88 104.483 31.94ZM104.783 33.08V33.02H104.723L104.783 33.08ZM91.8231 39.02C91.8231 39.02 91.8231 39.02 91.8831 38.96C91.8231 38.96 91.7631 38.96 91.7031 38.9C91.7031 38.9 91.7031 38.96 91.6431 38.96C91.7031 39.02 91.7631 39.02 91.8231 39.02ZM92.0631 37.94C92.0631 37.88 92.0631 37.88 92.0631 37.88H92.0031C92.0031 37.88 92.0031 37.94 92.0631 37.94ZM93.2631 39.2C93.2631 39.2 93.3831 39.2 93.3831 39.14C93.3831 39.14 93.3231 39.08 93.3231 39.02C93.2631 38.96 93.2031 38.96 93.2031 39.08C93.1431 39.08 93.2031 39.2 93.2631 39.2ZM94.2831 43.46L94.3431 43.34C94.2831 43.28 94.2231 43.28 94.1631 43.28C94.1031 43.28 94.1031 43.28 94.1031 43.4C94.1631 43.4 94.2231 43.46 94.2831 43.46ZM95.1231 42.2C95.1831 42.2 95.1831 42.14 95.1231 42.14C95.0631 42.14 95.0631 42.2 95.0631 42.2H95.1231ZM95.4231 43.16L95.4831 43.1H95.4231V43.16ZM96.2031 43.4C96.2031 43.34 96.2631 43.34 96.2631 43.34C96.2631 43.28 96.2031 43.28 96.2031 43.28C96.2031 43.28 96.1431 43.28 96.1431 43.34C96.1431 43.34 96.1431 43.34 96.2031 43.4ZM97.3431 43.04C97.4031 43.1 97.4631 43.04 97.5231 42.98C97.5231 42.92 97.5231 42.86 97.4631 42.86C97.4031 42.86 97.3431 42.86 97.2831 42.92C97.2831 42.92 97.2831 43.04 97.3431 43.04ZM98.8431 43.34L98.7831 43.28L98.8431 43.34ZM99.0831 42.98C99.1431 42.98 99.2031 42.98 99.2631 43.04C99.2031 42.92 99.2031 42.8 99.0831 42.98ZM99.3231 43.1H99.3831C99.3831 43.04 99.3831 43.04 99.3231 43.04V43.1ZM99.3231 42.08C99.3831 42.08 99.4431 42.02 99.5031 41.96C99.4431 41.96 99.3831 41.9 99.3231 41.9C99.2631 41.9 99.2631 41.96 99.2031 41.96C99.2631 42.02 99.2631 42.08 99.3231 42.08ZM104.243 42.68C104.363 42.74 104.423 42.74 104.483 42.62C104.483 42.56 104.423 42.5 104.423 42.5C104.303 42.44 104.243 42.44 104.183 42.5C104.123 42.56 104.183 42.62 104.243 42.68ZM105.443 29.96C105.443 29.96 105.443 30.02 105.443 30.08V30.02V29.96ZM105.443 33.86L105.383 33.92H105.443V33.86ZM105.383 36.32C105.443 36.26 105.503 36.26 105.503 36.2C105.503 36.14 105.443 36.08 105.323 36.02L105.383 36.08C105.383 36.14 105.383 36.2 105.383 36.32ZM105.623 32.12L105.683 32.06C105.683 32 105.623 32 105.623 31.94C105.623 32 105.563 32 105.563 32C105.563 32.06 105.623 32.06 105.623 32.12ZM105.803 36.92H105.863L105.803 36.86V36.92ZM105.983 32.36C105.983 32.42 105.923 32.42 105.923 32.42C105.983 32.48 105.983 32.54 105.983 32.6C106.043 32.6 106.043 32.54 106.043 32.54C106.043 32.48 106.043 32.42 105.983 32.36ZM106.043 39.2C105.983 39.26 105.983 39.32 106.043 39.38C106.103 39.32 106.163 39.32 106.163 39.32C106.223 39.26 106.163 39.2 106.103 39.2H106.043ZM106.163 40.16L106.223 40.1H106.163V40.16ZM108.263 41.3L108.323 41.24H108.203L108.263 41.3ZM109.103 42.2H109.163L109.103 42.14V42.2ZM109.583 33.38L109.643 33.32H109.583V33.38ZM109.823 41.3C109.883 41.24 109.883 41.18 109.763 41.18V41.24C109.763 41.3 109.823 41.3 109.823 41.3ZM110.123 42.02C110.123 42.02 110.183 42.02 110.183 41.96C110.183 41.9 110.183 41.84 110.123 41.84C110.123 41.84 110.063 41.84 110.063 41.9C110.063 41.96 110.063 42.02 110.123 42.02ZM110.303 41.24H110.363V41.18L110.303 41.24ZM97.5831 33.26C97.4631 33.32 97.3431 33.38 97.2831 33.26C97.3431 33.26 97.4631 33.26 97.5831 33.26ZM144.607 42.68C144.787 42.68 144.907 42.92 144.907 43.16C144.847 43.34 144.727 43.4 144.607 43.46C144.487 43.46 144.307 43.52 144.187 43.52C141.847 43.28 139.447 43.88 137.107 43.64C135.787 43.52 134.527 43.94 133.207 43.7C132.907 43.7 132.607 43.88 132.307 43.94C132.007 43.94 131.647 44.06 131.587 43.7C131.467 43.4 131.707 43.16 132.007 43.04C133.387 42.74 133.567 41.42 133.927 40.46C134.227 39.44 134.107 38.3 134.287 37.28C134.467 36.08 134.287 34.88 134.467 33.74C134.647 32 134.467 30.32 134.287 28.64C134.287 28.58 134.287 28.58 134.287 28.52C134.587 27.26 133.867 26.18 133.387 25.1C133.147 24.5 132.547 24.32 131.947 24.14C131.527 24.08 131.107 24.08 130.747 24.08C130.447 24.08 130.147 24.2 130.087 23.78C129.787 23.66 129.487 23.78 129.427 24.14C129.367 24.56 129.067 24.56 128.767 24.68C127.927 25.22 127.267 26 126.487 26.6C125.887 27.08 125.767 27.62 125.767 28.28C125.827 29.6 125.887 30.92 125.887 32.18C125.887 32.36 125.767 32.54 125.707 32.72C125.947 32.96 125.947 33.2 125.947 33.5C125.827 34.88 125.947 36.2 125.887 37.58C125.887 38.66 126.307 39.8 126.547 40.94C126.547 41.06 126.727 41.18 126.847 41.24C127.087 41.42 127.147 41.72 127.327 41.96C127.567 42.2 127.327 42.44 127.327 42.62C127.327 43.22 127.687 42.38 127.867 42.74C127.987 43.04 128.287 43.04 128.527 43.16C128.707 43.28 128.947 43.34 128.887 43.58C128.827 43.76 128.647 43.76 128.467 43.76C127.567 43.7 126.607 44 125.707 43.94C124.807 43.94 123.967 44.06 123.067 44.12C121.267 44.24 119.467 44.3 117.607 44.3C117.127 44.3 116.647 44.3 116.107 44.3C115.867 44.3 115.687 44.24 115.627 43.94C115.567 43.7 115.627 43.52 115.867 43.4C117.127 42.68 117.487 41.54 117.427 40.16C117.427 39.44 117.307 38.66 117.907 38.06C117.967 38 117.967 37.94 117.967 37.88C117.487 36.02 118.087 34.22 118.147 32.42C118.147 31.52 118.267 30.62 118.147 29.66C118.087 28.88 117.907 28.1 118.207 27.26C118.387 26.78 118.147 26.18 118.087 25.64C117.847 22.64 117.607 19.7 116.767 16.82C116.587 16.22 116.407 15.62 116.167 15.08C116.047 14.66 115.747 14.06 115.207 13.82C114.727 13.64 114.847 13.4 115.147 13.1C115.387 12.86 115.747 12.8 116.107 12.8C116.767 12.8 117.427 12.74 118.087 12.74C120.127 12.74 122.167 12.8 124.207 12.86C125.107 12.86 125.587 13.4 125.527 14.3C125.407 15.26 125.527 16.22 125.587 17.24C125.647 18.08 125.587 18.98 125.467 19.82C125.467 19.94 125.407 20.12 125.587 20.12C125.647 20.84 125.887 21.62 125.467 22.28C126.127 23.3 125.467 24.44 125.887 25.46C126.667 25.28 126.607 24.26 127.267 23.9C127.387 23.96 127.507 24.02 127.627 23.9C127.627 23.9 127.627 23.9 127.687 23.9C127.867 22.46 129.007 21.86 130.087 21.14C131.647 20.12 133.447 19.7 135.367 19.76C135.487 19.76 135.667 19.82 135.727 19.94C137.407 20.24 138.787 20.9 139.627 22.4C140.347 23.66 141.007 24.98 141.187 26.42C141.187 26.78 141.367 27.2 141.007 27.56C140.887 27.62 140.707 27.92 141.127 27.8C141.367 27.74 141.367 27.98 141.367 28.16C141.187 28.7 141.307 29.24 141.307 29.84C141.307 31.88 141.427 33.92 141.367 35.96C141.307 36.8 141.547 37.58 141.427 38.42C141.427 38.84 141.607 39.32 141.847 39.74C142.207 40.4 142.447 41.18 142.927 41.84C143.467 42.14 143.887 42.74 144.607 42.68ZM117.727 39.14C117.787 39.14 117.847 39.14 117.847 39.08V39.02C117.787 39.08 117.727 39.08 117.667 39.08C117.727 39.08 117.727 39.14 117.727 39.14ZM122.047 35.84V35.9H122.107L122.047 35.84ZM122.107 40.34L122.047 40.4H122.107V40.34ZM118.447 33.56C118.447 33.5 118.507 33.44 118.507 33.38C118.447 33.38 118.387 33.38 118.387 33.38C118.267 33.38 118.267 33.44 118.267 33.5C118.327 33.56 118.387 33.62 118.447 33.56ZM119.167 34.28C119.227 34.22 119.227 34.22 119.287 34.16C119.227 34.16 119.167 34.1 119.107 34.16C119.107 34.16 119.047 34.22 119.047 34.28C119.047 34.34 119.107 34.34 119.167 34.28ZM119.827 39.5C119.827 39.44 119.887 39.44 119.887 39.44V39.38C119.827 39.32 119.767 39.32 119.767 39.38C119.767 39.44 119.827 39.44 119.827 39.5ZM120.007 41.18H120.067L120.007 41.12V41.18ZM120.067 36.8V36.74C120.067 36.68 120.067 36.68 120.007 36.68H119.947C119.947 36.8 120.007 36.8 120.067 36.8ZM120.187 38.6L120.247 38.54L120.187 38.48V38.6ZM121.087 41.78C121.087 41.72 121.087 41.72 121.087 41.72C121.027 41.72 121.027 41.66 120.967 41.66C120.907 41.72 120.907 41.72 120.967 41.78C121.027 41.78 121.027 41.78 121.087 41.78ZM121.327 32.3H121.387L121.327 32.24V32.3ZM121.627 41H121.687C121.627 41 121.627 41 121.567 40.94C121.567 41 121.627 41 121.627 41ZM121.747 36.26V36.2L121.687 36.26H121.747ZM121.687 34.4H121.747V34.34L121.687 34.4ZM122.107 41.6C122.167 41.6 122.287 41.66 122.287 41.48C122.227 41.42 122.107 41.3 122.047 41.3C121.987 41.36 121.867 41.42 121.867 41.48C121.867 41.6 121.987 41.6 122.107 41.6ZM122.527 40.76C122.527 40.7 122.527 40.58 122.587 40.52C122.467 40.58 122.287 40.64 122.527 40.76ZM122.407 15.08C122.467 15.2 122.587 15.2 122.707 15.2C122.647 15.08 122.527 15.08 122.407 15.08ZM122.767 15.32H122.827C122.827 15.32 122.767 15.32 122.767 15.26V15.32ZM123.367 40.58H123.427H123.367ZM123.487 14.72L123.547 14.78C123.547 14.78 123.547 14.72 123.607 14.72C123.547 14.72 123.547 14.72 123.487 14.72ZM123.607 41L123.547 40.94L123.607 41ZM123.607 39.86L123.547 39.8L123.607 39.86ZM125.107 30.74V30.8V30.74ZM124.747 37.04V36.98V37.04ZM125.047 42.32C125.047 42.44 125.107 42.44 125.167 42.32L125.107 42.26L125.047 42.32ZM125.287 34.82L125.347 34.76L125.227 34.7L125.287 34.82ZM125.287 25.52H125.347L125.287 25.46V25.52ZM125.347 24.98V24.92H125.287L125.347 24.98ZM126.127 42.8H126.067C126.067 42.8 126.067 42.8 126.127 42.8ZM125.707 32.84V32.78C125.707 32.78 125.707 32.78 125.707 32.84ZM129.847 22.34V22.28H129.787L129.847 22.34ZM132.787 20.24H132.847V20.18L132.787 20.24ZM133.207 42.8C133.327 42.8 133.387 42.8 133.447 42.68C133.447 42.62 133.387 42.56 133.327 42.56C133.267 42.5 133.147 42.56 133.147 42.68L133.207 42.8ZM133.927 41.72C133.987 41.72 134.047 41.6 134.047 41.54C133.987 41.48 134.047 41.3 133.927 41.36C133.867 41.42 133.807 41.54 133.807 41.6C133.807 41.72 133.867 41.78 133.927 41.72ZM134.347 42.38C134.407 42.44 134.347 42.32 134.407 42.38C134.467 42.32 134.407 42.26 134.347 42.32C134.347 42.32 134.347 42.32 134.347 42.38ZM134.467 42.38C134.467 42.44 134.467 42.56 134.527 42.44C134.587 42.38 134.527 42.38 134.467 42.38ZM134.527 28.22L134.587 28.16C134.587 28.16 134.587 28.1 134.527 28.1L134.467 28.16L134.527 28.22ZM134.647 30.92C134.707 31.04 134.707 31.04 134.767 30.92V30.86H134.707L134.647 30.92ZM139.747 31.82C139.747 31.82 139.747 31.82 139.747 31.88C139.747 31.82 139.747 31.82 139.747 31.82ZM136.087 24.38H135.967L136.027 24.44L136.087 24.38ZM136.087 31.16H136.027V31.22L136.087 31.16ZM135.907 33.38V33.44H135.967C135.967 33.38 135.967 33.38 135.907 33.38ZM135.487 22.1V22.16V22.1ZM135.487 42.5H135.547L135.487 42.44V42.5ZM135.547 20.36H135.607C135.787 20.3 135.727 20.12 135.727 20C135.547 20.06 135.547 20.18 135.607 20.36H135.547ZM135.607 37.22C135.667 37.22 135.727 37.28 135.787 37.28C135.907 37.28 135.907 37.22 135.907 37.1C135.847 37.04 135.847 37.04 135.727 37.1C135.727 37.1 135.667 37.16 135.607 37.22ZM135.847 40.16C135.787 40.22 135.787 40.28 135.907 40.28C135.967 40.28 136.027 40.28 136.027 40.28C136.027 40.22 136.027 40.16 135.967 40.1C135.907 40.04 135.847 40.1 135.847 40.16ZM135.847 43.28C135.967 43.34 136.027 43.28 136.027 43.16C136.027 43.1 135.967 43.1 135.967 43.04C135.907 43.1 135.847 43.1 135.787 43.16L135.847 43.28ZM136.087 42.38C136.147 42.32 136.207 42.32 136.267 42.32C136.267 42.26 136.207 42.26 136.207 42.26C136.147 42.26 136.087 42.26 136.027 42.32C136.087 42.32 136.087 42.38 136.087 42.38ZM136.207 29.36C136.207 29.42 136.207 29.42 136.267 29.36V29.3H136.207C136.207 29.3 136.207 29.3 136.207 29.36ZM136.327 36.08C136.327 36.08 136.387 36.08 136.447 36.14C136.447 36.08 136.387 36.08 136.387 36.08C136.387 36.02 136.327 36.08 136.327 36.08ZM136.627 39.32H136.687C136.687 39.32 136.627 39.32 136.567 39.26C136.627 39.32 136.627 39.32 136.627 39.32ZM136.987 38.18V38.12L136.927 38.18H136.987ZM137.047 29.3C137.107 29.3 137.227 29.36 137.287 29.36C137.347 29.36 137.407 29.3 137.407 29.24C137.407 29.12 137.347 29.06 137.227 29.12C137.167 29.18 137.107 29.24 137.047 29.3ZM137.407 33.8V33.74C137.407 33.68 137.407 33.68 137.347 33.62C137.347 33.68 137.287 33.68 137.287 33.68C137.287 33.8 137.347 33.8 137.407 33.8ZM137.707 41.36H137.767L137.707 41.3V41.36ZM137.887 38.42C137.947 38.42 138.007 38.36 138.067 38.36C138.007 38.36 137.947 38.3 137.947 38.3C137.887 38.3 137.827 38.3 137.767 38.36C137.827 38.36 137.887 38.42 137.887 38.42ZM138.067 35.72H138.127V35.66L138.067 35.72ZM138.487 40.58H138.427H138.487ZM138.607 33.5L138.667 33.44C138.607 33.44 138.607 33.38 138.607 33.38C138.547 33.38 138.547 33.44 138.547 33.44C138.607 33.44 138.607 33.5 138.607 33.5ZM138.787 26.24C138.787 26.24 138.847 26.24 138.847 26.3C138.907 26.24 138.907 26.18 138.907 26.12C138.907 26.12 138.907 26.12 138.907 26.06C138.847 26.12 138.847 26.18 138.787 26.24ZM138.907 38.72H138.967V38.66L138.907 38.72ZM139.447 36.5V36.44H139.387L139.447 36.5ZM139.447 24.86C139.447 24.86 139.447 24.86 139.447 24.8C139.447 24.8 139.447 24.8 139.447 24.74L139.387 24.8L139.447 24.86ZM139.627 42.44V42.38V42.44ZM139.747 41.18H139.807C139.747 41.12 139.747 41.12 139.687 41.12V41.18H139.747ZM139.807 34.04V33.98H139.747L139.807 34.04ZM139.867 29.3C139.867 29.3 139.867 29.3 139.927 29.3C139.927 29.3 139.927 29.3 139.987 29.3C139.927 29.3 139.867 29.3 139.867 29.3ZM139.987 30.02H139.927L139.987 30.08V30.02ZM139.987 32.9H140.047L139.987 32.84V32.9ZM140.047 24.56C140.227 24.56 140.227 24.44 140.227 24.32C140.227 24.26 140.167 24.2 140.167 24.2C140.047 24.2 139.987 24.32 139.987 24.44C139.987 24.5 140.047 24.56 140.047 24.56ZM140.767 29.54C140.767 29.48 140.767 29.42 140.827 29.42C140.827 29.36 140.767 29.3 140.767 29.24C140.767 29.3 140.707 29.36 140.707 29.36C140.707 29.42 140.707 29.48 140.767 29.54ZM140.647 26.48C140.767 26.42 140.827 26.36 140.827 26.3C140.827 26.18 140.767 26.06 140.707 26.06C140.587 26 140.527 26.12 140.527 26.3C140.527 26.36 140.587 26.42 140.647 26.48ZM142.867 41.96C142.927 41.96 142.927 41.9 142.927 41.84C142.867 41.84 142.687 41.84 142.867 41.96ZM127.387 23.72C127.507 23.72 127.627 23.78 127.627 23.9C127.507 23.9 127.387 23.9 127.267 23.9C127.267 23.84 127.267 23.72 127.387 23.72ZM125.647 20.12C125.587 20.12 125.587 20.12 125.587 20.12C125.587 20.06 125.647 20.06 125.647 20.12ZM170.169 39.14C170.349 41.18 171.309 42.8 173.409 43.52C172.629 44 172.629 44.06 171.309 44.06C170.229 44.12 169.149 44.24 168.129 44.18C166.089 44.12 164.109 44.24 162.069 44.06C161.949 44.06 161.769 44.06 161.649 44.06C160.989 44.24 160.689 44.06 160.929 43.34C160.929 43.28 160.809 43.22 160.749 43.16C161.169 42.62 161.649 42.2 162.129 41.84C162.789 41.06 162.669 40.1 162.909 39.2C163.029 38.66 163.029 38.06 163.029 37.46C163.089 37.1 163.029 36.68 163.209 36.38C163.149 36.26 163.089 36.2 163.089 36.08C163.449 33.92 162.969 31.82 162.969 29.72C162.969 29.06 162.729 28.28 162.609 27.62C162.549 27.26 162.009 27.32 162.069 26.9C161.889 26.66 161.649 26.42 161.469 26.18C160.689 25.16 159.369 24.86 158.169 25.46C157.929 25.64 157.689 25.76 157.449 25.88C157.089 26.12 156.789 26.12 156.549 25.7C156.669 26.12 156.669 26.42 156.249 26.66C155.289 27.2 155.049 28.04 155.109 29.18C155.229 31.1 155.169 32.96 155.229 34.88C155.289 36.98 155.289 39.02 155.709 41.12C155.889 41.9 156.789 42.08 156.909 42.8C157.509 42.2 157.809 43.28 158.349 43.1C158.529 43.04 158.649 43.1 158.649 43.28C158.709 43.46 158.469 43.46 158.469 43.46C158.049 44.18 157.389 43.88 156.849 43.82C156.549 43.76 156.309 43.76 156.069 43.82C155.469 44.06 154.869 43.76 154.269 43.76C154.089 43.76 154.029 43.4 153.849 43.82C153.729 44.06 153.309 43.88 153.069 43.7C152.649 44.18 152.169 43.82 151.749 43.82C149.469 44 147.249 43.94 144.969 43.88C144.789 43.88 144.609 43.88 144.369 43.88C144.549 43.52 144.669 43.28 145.029 43.22C145.629 43.1 145.929 42.68 146.229 42.14C146.769 41.06 147.069 39.56 147.249 38.42C147.309 37.76 147.429 37.1 147.369 36.38C147.369 36.2 147.429 35.9 147.609 35.84C148.149 35.6 148.029 35.54 147.549 35.42C147.429 35.42 147.549 35.24 147.549 35.12C147.729 33.98 147.669 32.78 147.609 31.64C147.609 30.74 147.609 29.84 147.549 28.94C147.309 26.48 146.769 24.08 145.689 21.86C145.569 21.56 145.269 21.32 145.089 21.08C144.969 20.9 144.609 20.9 144.729 20.6C144.849 20.3 145.089 20.3 145.329 20.3C146.169 20.24 147.009 20.18 147.849 20.18C149.769 20.18 151.629 20.3 153.489 20.3C154.629 20.36 154.749 20.54 154.809 21.68C154.869 22.34 154.749 22.94 154.869 23.6C154.989 24.26 154.929 24.86 154.929 25.4C155.409 24.98 155.949 24.56 156.429 24.14C156.429 24.62 156.669 24.32 156.849 24.26C156.729 24.2 156.609 24.08 156.429 24.14C157.089 23.06 158.229 22.64 159.129 21.98C159.309 21.8 159.489 22.04 159.669 22.04C160.029 21.38 160.929 21.08 161.529 21.38C161.649 21.44 161.709 21.5 161.829 21.26C161.889 20.96 162.009 20.9 162.249 20.9C162.729 21.02 163.209 20.96 163.689 20.9C164.229 20.84 164.769 20.96 165.249 21.08C165.909 21.14 166.329 21.56 166.869 21.8C167.349 22.04 167.109 22.4 167.049 22.88C167.469 22.34 167.769 22.52 167.949 22.88C168.909 24.2 169.569 25.7 169.689 27.32C169.689 27.38 169.749 27.44 169.749 27.5C169.929 28.16 169.629 28.88 169.929 29.66C170.169 30.44 170.109 31.34 170.049 32.18C170.049 33.02 170.109 33.8 169.929 34.64C169.869 35 169.989 35.36 170.049 35.72C170.049 36.86 170.049 38 170.169 39.14ZM147.969 27.08H148.029C148.029 27.02 148.029 26.96 147.969 27.02V27.08ZM150.069 39.98C150.069 39.98 150.129 39.92 150.069 39.92C150.069 39.92 150.069 39.92 150.009 39.92C149.949 39.92 149.949 39.98 150.009 39.98C150.009 40.04 150.069 39.98 150.069 39.98ZM150.789 41.24C150.849 41.24 150.909 41.18 150.969 41.18L150.909 41.12C150.849 41.12 150.849 41.12 150.789 41.12C150.729 41.18 150.729 41.18 150.789 41.24ZM151.509 41.66C151.569 41.66 151.569 41.6 151.629 41.54C151.569 41.54 151.569 41.48 151.509 41.48C151.449 41.48 151.389 41.54 151.329 41.54C151.389 41.6 151.449 41.66 151.509 41.66ZM151.869 39.2C151.929 39.2 151.929 39.14 151.989 39.08C151.989 39.02 151.929 39.02 151.929 38.96C151.869 38.9 151.809 38.9 151.749 38.96C151.749 39.08 151.749 39.14 151.869 39.2ZM151.989 22.04C152.049 22.1 152.169 22.1 152.229 22.1C152.229 22.04 152.169 21.98 152.169 21.92C152.109 21.86 151.989 21.86 151.929 21.92C151.929 21.92 151.929 22.04 151.989 22.04ZM152.709 39.68H152.769C152.769 39.68 152.769 39.62 152.709 39.62C152.709 39.62 152.649 39.62 152.649 39.68H152.709ZM152.949 21.62V21.56H152.889C152.889 21.62 152.889 21.62 152.949 21.62ZM152.949 43.64C153.009 43.64 153.009 43.7 153.009 43.7V43.64C153.009 43.64 153.009 43.64 152.949 43.64ZM153.069 41.36C153.069 41.36 153.069 41.3 153.009 41.3C153.009 41.3 153.009 41.36 152.949 41.36C153.009 41.36 153.009 41.42 153.069 41.36ZM153.189 37.46C153.249 37.46 153.309 37.46 153.309 37.4C153.309 37.4 153.309 37.34 153.249 37.34C153.249 37.4 153.189 37.4 153.129 37.4C153.129 37.46 153.189 37.46 153.189 37.46ZM153.669 21.2H153.609H153.669ZM157.509 43.22C157.449 43.22 157.449 43.22 157.449 43.22C157.449 43.28 157.449 43.28 157.509 43.28C157.509 43.22 157.509 43.22 157.509 43.22ZM156.189 25.22C156.249 25.22 156.309 25.22 156.369 25.16C156.309 25.16 156.309 25.1 156.249 25.1C156.249 25.1 156.189 25.16 156.129 25.16C156.189 25.16 156.189 25.22 156.189 25.22ZM159.009 22.46C158.889 22.52 158.889 22.58 158.949 22.64C159.009 22.58 159.009 22.58 159.009 22.58C159.009 22.52 159.009 22.46 159.009 22.46ZM159.009 24.8C159.009 24.8 159.069 24.74 159.069 24.68C159.009 24.68 158.949 24.68 159.009 24.8ZM159.069 24.68C159.189 24.5 159.369 24.38 159.489 24.2C159.189 23.96 158.769 23.72 158.589 24.08C158.349 24.38 159.069 24.2 159.069 24.56C159.069 24.56 159.069 24.62 159.069 24.68ZM160.749 21.68C160.749 21.68 160.569 21.68 160.689 21.8C160.749 21.74 160.749 21.74 160.809 21.68V21.62L160.749 21.68ZM159.669 22.04C159.669 22.1 159.669 22.22 159.789 22.1C159.729 22.1 159.729 22.1 159.669 22.04ZM159.849 22.94C159.909 22.94 159.969 22.94 159.969 22.82C159.969 22.76 159.969 22.7 159.909 22.7C159.849 22.76 159.789 22.82 159.729 22.88C159.729 22.88 159.789 22.94 159.849 22.94ZM160.089 23.66H160.149L160.089 23.6V23.66ZM160.509 24.26V24.2H160.449L160.509 24.26ZM160.629 22.94C160.689 22.94 160.809 22.94 160.929 22.94C160.869 22.88 160.809 22.82 160.809 22.76C160.689 22.7 160.629 22.76 160.569 22.82C160.509 22.88 160.509 22.94 160.629 22.94ZM161.049 24.44C161.109 24.38 161.109 24.38 160.989 24.38C160.989 24.38 160.989 24.38 160.929 24.38V24.44C160.989 24.44 160.989 24.44 161.049 24.44ZM161.169 23.9C161.109 23.9 161.109 23.9 161.109 23.9C161.109 23.9 161.109 23.9 161.169 23.9ZM161.169 23.9C161.109 23.96 161.169 23.96 161.169 23.9V23.9ZM162.189 21.5C162.129 21.56 162.129 21.62 162.189 21.62C162.309 21.68 162.369 21.62 162.429 21.56C162.429 21.5 162.369 21.44 162.369 21.38C162.309 21.44 162.249 21.44 162.189 21.5ZM162.309 24.74C162.249 24.68 162.249 24.62 162.189 24.56C162.189 24.62 162.129 24.62 162.129 24.62C162.189 24.68 162.189 24.8 162.189 24.8C162.249 24.8 162.309 24.8 162.309 24.74ZM162.129 26.9C162.189 26.9 162.309 26.96 162.369 26.84L162.309 26.78C162.249 26.84 162.189 26.9 162.129 26.9ZM162.369 25.4C162.369 25.4 162.429 25.4 162.429 25.34C162.429 25.28 162.369 25.22 162.309 25.28C162.309 25.28 162.249 25.28 162.249 25.34C162.309 25.34 162.309 25.4 162.369 25.4ZM162.489 26.42C162.549 26.36 162.609 26.3 162.669 26.3L162.609 26.24C162.609 26.3 162.549 26.36 162.489 26.42H162.429H162.489ZM163.089 21.98H163.149V21.92L163.089 21.98ZM161.169 43.4C161.229 43.46 161.289 43.46 161.289 43.4C161.289 43.4 161.289 43.4 161.289 43.34H161.229C161.229 43.4 161.169 43.4 161.169 43.4ZM166.269 24.74C166.209 24.8 166.209 24.92 166.269 24.98C166.389 25.04 166.449 25.04 166.509 24.98C166.569 24.86 166.569 24.74 166.449 24.74C166.389 24.74 166.329 24.74 166.269 24.74ZM166.389 42.14C166.389 42.08 166.329 42.08 166.329 42.08C166.329 42.08 166.269 42.08 166.269 42.14C166.269 42.14 166.329 42.14 166.329 42.2C166.329 42.14 166.389 42.14 166.389 42.14ZM166.269 40.58C166.209 40.58 166.149 40.58 166.029 40.52C166.089 40.58 166.089 40.7 166.209 40.64C166.209 40.64 166.269 40.64 166.269 40.58ZM166.149 37.76V37.82L166.209 37.76H166.149ZM165.969 31.52C165.909 31.52 165.909 31.52 165.909 31.58C165.909 31.58 165.909 31.64 165.969 31.64C165.969 31.64 165.969 31.58 166.029 31.58C165.969 31.58 165.969 31.52 165.969 31.52ZM165.789 21.92L165.729 21.98H165.789V21.92ZM165.789 22.52C165.729 22.58 165.729 22.58 165.729 22.58C165.789 22.7 165.789 22.7 165.789 22.64C165.849 22.58 165.789 22.58 165.789 22.52ZM165.309 27.56C165.309 27.62 165.249 27.62 165.249 27.68C165.309 27.68 165.309 27.68 165.369 27.68C165.369 27.68 165.429 27.68 165.429 27.62C165.429 27.56 165.429 27.56 165.309 27.56ZM164.829 35.3L164.769 35.36H164.829V35.3ZM164.949 37.7C164.889 37.7 164.769 37.7 164.769 37.76C164.769 37.82 164.829 37.88 164.829 37.94C164.889 37.88 164.949 37.82 165.009 37.82C165.009 37.76 164.949 37.76 164.949 37.7ZM165.069 39.08H165.009V39.14L165.069 39.08ZM164.649 34.76L164.589 34.82C164.649 34.94 164.649 34.94 164.709 34.82L164.649 34.76ZM164.469 38.36L164.409 38.42C164.409 38.48 164.469 38.54 164.469 38.6C164.469 38.54 164.529 38.54 164.529 38.54C164.529 38.48 164.469 38.42 164.469 38.36ZM163.749 22.7H163.689V22.76L163.749 22.7ZM163.749 23.3L163.689 23.24V23.3H163.749ZM163.449 38.48C163.449 38.48 163.449 38.54 163.389 38.54C163.389 38.54 163.449 38.54 163.449 38.6C163.509 38.54 163.509 38.54 163.509 38.54C163.509 38.54 163.509 38.48 163.449 38.48ZM163.269 36.32C163.269 36.32 163.269 36.32 163.329 36.32C163.269 36.32 163.269 36.32 163.269 36.32ZM163.269 43.04C163.329 43.22 163.509 43.16 163.629 43.1C163.569 42.98 163.509 42.86 163.329 42.86C163.269 42.86 163.269 42.98 163.269 43.04ZM163.749 40.52C163.809 40.46 163.689 40.28 163.569 40.22C163.209 40.16 163.209 40.52 162.909 40.82C163.329 40.64 163.569 40.64 163.749 40.52ZM164.109 39.32V39.26H164.049L164.109 39.32ZM164.109 38.18V38.12H164.049L164.109 38.18ZM164.049 26.18L164.109 26.12H164.049V26.18ZM164.349 42.32C164.469 42.32 164.529 42.14 164.529 42.02C164.409 42.08 164.349 42.2 164.289 42.32C164.289 42.32 164.289 42.32 164.349 42.32ZM164.589 41.96C164.769 41.78 165.009 41.6 164.769 41.24C164.529 41.48 164.589 41.72 164.589 41.96ZM165.009 40.4C165.009 40.4 165.069 40.4 165.069 40.34C165.069 40.34 165.069 40.28 165.009 40.22L164.949 40.28C164.949 40.34 165.009 40.4 165.009 40.4ZM165.249 33.68C165.309 33.74 165.369 33.68 165.429 33.62C165.429 33.56 165.429 33.5 165.369 33.44C165.309 33.38 165.189 33.44 165.189 33.56C165.189 33.56 165.189 33.68 165.249 33.68ZM165.549 34.64C165.549 34.7 165.609 34.7 165.609 34.64C165.609 34.58 165.609 34.52 165.609 34.46H165.549C165.549 34.52 165.549 34.58 165.549 34.64ZM165.729 41.84C165.789 41.78 165.849 41.72 165.909 41.66C165.849 41.66 165.849 41.66 165.849 41.66C165.789 41.72 165.669 41.66 165.669 41.78L165.729 41.84ZM165.729 36.08H165.789V36.02L165.729 36.08ZM165.849 30.32C165.849 30.32 165.909 30.32 165.909 30.26C165.849 30.26 165.849 30.2 165.789 30.2L165.729 30.26C165.729 30.38 165.789 30.38 165.849 30.32ZM165.969 36.86C165.849 36.86 165.909 37.04 165.909 37.16C166.029 37.16 166.209 37.28 166.209 37.04C166.209 36.92 166.089 36.8 165.969 36.86ZM166.029 43.1C166.209 43.1 166.329 43.16 166.629 42.98C166.389 43.04 166.209 42.92 166.029 43.1ZM166.569 31.04C166.629 31.04 166.629 31.04 166.689 30.98C166.689 30.92 166.689 30.92 166.569 30.92C166.569 30.92 166.509 30.98 166.509 31.04C166.569 31.04 166.569 31.04 166.569 31.04ZM166.869 40.64C166.929 40.58 166.929 40.58 166.929 40.58C166.929 40.52 166.929 40.46 166.929 40.4C166.869 40.4 166.869 40.46 166.869 40.46C166.869 40.52 166.869 40.58 166.869 40.64ZM166.929 39.68L166.989 39.62C166.929 39.56 166.929 39.56 166.929 39.5C166.869 39.5 166.869 39.5 166.869 39.56C166.869 39.56 166.869 39.62 166.929 39.68ZM166.629 26.36C166.689 26.6 166.809 26.54 166.989 26.54C166.929 26.48 166.929 26.36 166.869 26.36C166.749 26.24 167.049 26 166.749 26.06C166.629 26.12 166.629 26.24 166.629 26.36ZM166.569 23C166.629 23.36 166.629 23.6 166.989 23.54C166.929 23.3 166.869 23.12 166.569 23ZM166.989 26.6C167.049 26.66 167.049 26.66 167.049 26.6C167.049 26.6 167.049 26.6 166.989 26.6ZM167.109 23.72C167.109 23.72 167.169 23.72 167.169 23.66C167.169 23.6 167.109 23.6 166.989 23.54C166.989 23.66 167.049 23.72 167.109 23.72ZM167.289 35.96V35.9H167.229L167.289 35.96ZM167.769 28.34C167.649 28.34 167.589 28.4 167.589 28.52L167.649 28.58C167.709 28.52 167.769 28.46 167.829 28.4L167.769 28.34ZM167.709 39.62V39.56C167.709 39.56 167.709 39.5 167.649 39.5C167.649 39.5 167.589 39.5 167.589 39.56C167.649 39.56 167.649 39.62 167.709 39.62ZM167.829 31.82C167.829 31.82 167.829 31.76 167.889 31.76L167.829 31.7H167.769C167.709 31.76 167.709 31.82 167.829 31.82ZM167.889 25.28C167.889 25.28 167.889 25.28 167.889 25.22H167.829V25.28C167.829 25.28 167.829 25.28 167.889 25.28ZM168.609 25.52H168.549L168.609 25.58V25.52ZM168.069 31.16C167.949 31.16 167.949 31.16 168.009 31.22C168.069 31.22 168.129 31.28 168.189 31.28V31.22C168.129 31.16 168.129 31.16 168.069 31.16ZM168.189 42.74C168.249 42.74 168.249 42.74 168.249 42.68C168.249 42.68 168.249 42.68 168.249 42.62C168.189 42.68 168.189 42.68 168.189 42.68C168.189 42.74 168.189 42.74 168.189 42.74ZM168.249 40.94C168.249 40.88 168.309 40.82 168.309 40.82C168.309 40.7 168.249 40.64 168.129 40.64C168.069 40.64 168.009 40.7 168.069 40.76C168.129 40.82 168.189 40.88 168.249 40.94ZM168.429 40.28C168.429 40.22 168.489 40.22 168.489 40.22C168.489 40.16 168.429 40.1 168.429 40.04C168.369 40.04 168.369 40.1 168.369 40.1C168.369 40.16 168.369 40.22 168.429 40.28ZM168.069 26.66C167.949 27.08 168.549 26.9 168.609 27.26C168.729 27.14 168.909 27.08 168.909 26.96C168.969 26.72 168.729 26.6 168.489 26.6C168.429 26.6 168.369 26.66 168.309 26.54C168.249 26.6 168.069 26.6 168.069 26.66ZM168.789 32.3C168.789 32.36 168.729 32.36 168.729 32.36C168.729 32.42 168.789 32.48 168.789 32.54L168.849 32.48C168.849 32.42 168.789 32.36 168.789 32.3ZM168.849 42.8C168.849 42.74 168.849 42.68 168.849 42.62C168.789 42.68 168.789 42.74 168.849 42.8ZM168.849 33.02C168.729 33.08 168.789 33.08 168.849 33.14L168.909 33.08V33.02C168.849 33.02 168.849 33.02 168.849 33.02ZM168.909 42.56C168.909 42.5 168.969 42.5 168.969 42.5H168.909C168.909 42.5 168.909 42.5 168.909 42.56ZM169.809 38.42C169.869 38.42 169.929 38.36 169.989 38.36C169.929 38.36 169.929 38.3 169.929 38.3C169.869 38.3 169.809 38.36 169.749 38.36L169.809 38.42ZM170.229 42.92V42.86H170.169C170.169 42.86 170.109 42.86 170.109 42.92C170.169 42.92 170.169 42.92 170.229 42.92ZM170.469 42.38C170.529 42.38 170.529 42.38 170.589 42.32C170.589 42.32 170.529 42.26 170.529 42.2L170.469 42.26C170.469 42.32 170.469 42.32 170.469 42.38ZM170.889 42.86V42.8C170.889 42.74 170.889 42.74 170.889 42.74C170.829 42.74 170.829 42.74 170.829 42.74C170.769 42.86 170.829 42.86 170.889 42.86ZM160.749 43.1C160.749 43.1 160.749 43.1 160.749 43.16C160.689 43.22 160.629 43.28 160.569 43.34V43.4V43.34C160.629 43.28 160.689 43.16 160.749 43.1Z" fill="#3A1B0F"/>
<path d="M22 58.4209C22 58.4209 43.0216 63.0742 57 46" stroke="#3A1B0F" stroke-width="3" stroke-miterlimit="10" stroke-linecap="round"/>
<path d="M49.212 67.3529C50.6018 61.7288 49.1766 56.5389 46.0286 55.761C42.8807 54.9831 39.2022 58.9117 37.8124 64.5359C36.4226 70.16 37.8478 75.3498 40.9957 76.1277C44.1436 76.9056 47.8222 72.977 49.212 67.3529Z" fill="#3A1B0F"/>
<path d="M14 68C21.732 68 28 61.732 28 54C28 46.268 21.732 40 14 40C6.26801 40 0 46.268 0 54C0 61.732 6.26801 68 14 68Z" fill="#404ED9"/>
</svg>
