<svg width="24" height="25" viewBox="0 0 24 25" fill="none" xmlns="http://www.w3.org/2000/svg">
<path d="M21.4286 0.199951H2.57143C1.88944 0.199951 1.23539 0.470869 0.753154 0.953105C0.270918 1.43534 0 2.08939 0 2.77138L0 21.6285C0 22.3105 0.270918 22.9646 0.753154 23.4468C1.23539 23.929 1.88944 24.2 2.57143 24.2H9.92411V16.0405H6.54911V12.2H9.92411V9.27281C9.92411 5.94334 11.9063 4.10424 14.9421 4.10424C16.3961 4.10424 17.9164 4.36352 17.9164 4.36352V7.63138H16.2413C14.5907 7.63138 14.0759 8.65567 14.0759 9.7062V12.2H17.7605L17.1712 16.0405H14.0759V24.2H21.4286C22.1106 24.2 22.7646 23.929 23.2468 23.4468C23.7291 22.9646 24 22.3105 24 21.6285V2.77138C24 2.08939 23.7291 1.43534 23.2468 0.953105C22.7646 0.470869 22.1106 0.199951 21.4286 0.199951Z" fill="#FCFCFC"/>
</svg>
