<svg width="24" height="25" viewBox="0 0 24 25" fill="none" xmlns="http://www.w3.org/2000/svg">
<path fill-rule="evenodd" clip-rule="evenodd" d="M7.05266 0.271951C8.33267 0.213282 8.74067 0.199951 12 0.199951C15.26 0.199951 15.6673 0.213948 16.9466 0.271951C18.2246 0.329955 19.0973 0.533289 19.8607 0.829951C20.6613 1.13138 21.3865 1.60367 21.986 2.21395C22.5963 2.81333 23.0687 3.53864 23.37 4.33929C23.6666 5.10262 23.8693 5.97529 23.928 7.25261C23.9867 8.53262 24 8.94062 24 12.2C24 15.4593 23.986 15.8673 23.928 17.1473C23.87 18.4246 23.6666 19.2973 23.37 20.0606C23.0633 20.8493 22.6526 21.5193 21.986 22.1859C21.3866 22.7963 20.6613 23.2686 19.8607 23.57C19.0973 23.8666 18.2246 24.0693 16.9474 24.128C15.6673 24.1866 15.2593 24.2 12 24.2C8.74067 24.2 8.33267 24.186 7.05266 24.128C5.77534 24.0699 4.90267 23.8666 4.13933 23.57C3.35066 23.2633 2.68067 22.8526 2.014 22.1859C1.40361 21.5866 0.931287 20.8612 0.63 20.0606C0.333338 19.2973 0.130669 18.4246 0.072 17.1473C0.0133309 15.8673 0 15.4599 0 12.2C0 8.93995 0.0139963 8.53262 0.072 7.25329C0.130004 5.97529 0.333338 5.10262 0.63 4.33929C0.931429 3.53869 1.40372 2.81342 2.014 2.21395C2.61337 1.60356 3.33867 1.13124 4.13933 0.829951C4.90267 0.533289 5.77534 0.33062 7.05266 0.271951ZM16.8493 2.43195C15.584 2.37461 15.204 2.36195 12 2.36195C8.796 2.36195 8.416 2.37461 7.15067 2.43195C5.98067 2.48529 5.34534 2.68061 4.92266 2.84529C4.36267 3.06262 3.96266 3.32261 3.54266 3.74261C3.12334 4.16261 2.86267 4.56262 2.64533 5.12261C2.48066 5.54529 2.28533 6.18062 2.232 7.35062C2.17466 8.61596 2.162 8.99595 2.162 12.2C2.162 15.404 2.17466 15.7839 2.232 17.0493C2.28533 18.2193 2.48066 18.8546 2.64533 19.2773C2.83757 19.7986 3.14421 20.2701 3.54266 20.6573C3.92983 21.0557 4.40139 21.3624 4.92266 21.5546C5.34534 21.7193 5.98067 21.9146 7.15067 21.968C8.416 22.0253 8.79533 22.038 12 22.038C15.2047 22.038 15.584 22.0253 16.8493 21.968C18.0193 21.9146 18.6547 21.7193 19.0774 21.5546C19.6373 21.3373 20.0374 21.0773 20.4574 20.6573C20.8558 20.2702 21.1624 19.7986 21.3547 19.2773C21.5194 18.8546 21.7147 18.2193 21.768 17.0493C21.8254 15.7839 21.838 15.404 21.838 12.2C21.838 8.99595 21.8254 8.61596 21.768 7.35062C21.7147 6.18062 21.5194 5.54529 21.3547 5.12261C21.1373 4.56262 20.8774 4.16261 20.4574 3.74261C20.0374 3.32329 19.6373 3.06262 19.0774 2.84529C18.6547 2.68061 18.0193 2.48529 16.8493 2.43195ZM10.4678 15.8991C10.9536 16.1004 11.4742 16.2039 12 16.2039C13.062 16.2039 14.0804 15.7821 14.8312 15.0312C15.5822 14.2803 16.0041 13.2618 16.0041 12.2C16.0041 11.1381 15.5822 10.1196 14.8312 9.36869C14.0804 8.6178 13.062 8.19594 12 8.19594C11.4742 8.19594 10.9536 8.29951 10.4678 8.50073C9.98193 8.70195 9.54058 8.99688 9.16877 9.36869C8.79697 9.7405 8.50203 10.1819 8.30082 10.6677C8.0996 11.1534 7.99604 11.6741 7.99604 12.2C7.99604 12.7258 8.0996 13.2465 8.30082 13.7322C8.50203 14.218 8.79697 14.6594 9.16877 15.0312C9.54058 15.403 9.98193 15.698 10.4678 15.8991ZM7.6386 7.83851C8.79532 6.68178 10.3642 6.03194 12 6.03194C13.6359 6.03194 15.2048 6.68178 16.3615 7.83851C17.5181 8.99523 18.168 10.5641 18.168 12.2C18.168 13.8358 17.5181 15.4046 16.3615 16.5614C15.2048 17.7181 13.6359 18.368 12 18.368C10.3642 18.368 8.79532 17.7181 7.6386 16.5614C6.48188 15.4046 5.83203 13.8358 5.83203 12.2C5.83203 10.5641 6.48188 8.99523 7.6386 7.83851ZM19.5357 6.95091C19.8091 6.67747 19.9627 6.30663 19.9627 5.91995C19.9627 5.53325 19.8091 5.16241 19.5357 4.88898C19.2622 4.61556 18.8914 4.46195 18.5047 4.46195C18.118 4.46195 17.7471 4.61556 17.4737 4.88898C17.2003 5.16241 17.0467 5.53325 17.0467 5.91995C17.0467 6.30663 17.2003 6.67747 17.4737 6.95091C17.7471 7.22434 18.118 7.37795 18.5047 7.37795C18.8914 7.37795 19.2622 7.22434 19.5357 6.95091Z" fill="#FCFCFC"/>
</svg>
