<svg width="24" height="25" viewBox="0 0 24 25" fill="none" xmlns="http://www.w3.org/2000/svg">
<path d="M22.2223 0.199951H1.77167C0.793667 0.199951 0 0.974951 0 1.92928V22.4683C0 23.424 0.793667 24.2 1.77167 24.2H22.2223C23.201 24.2 24 23.424 24 22.4683V1.92928C24 0.974951 23.201 0.199951 22.2223 0.199951ZM7.118 20.6513H3.55667V9.19828H7.118V20.6513ZM5.33733 7.63229C4.19633 7.63229 3.274 6.70762 3.274 5.56762C3.274 4.42929 4.19633 3.50462 5.33733 3.50462C6.47567 3.50462 7.40033 4.42929 7.40033 5.56762C7.40033 6.70762 6.47567 7.63229 5.33733 7.63229ZM20.45 20.6513H16.8943V15.082C16.8943 13.7533 16.8683 12.045 15.044 12.045C13.1913 12.045 12.909 13.492 12.909 14.9856V20.6516H9.35067V9.19828H12.7657V10.7623H12.8143C13.2897 9.86228 14.451 8.91262 16.183 8.91262C19.785 8.91262 20.4503 11.284 20.4503 14.369L20.45 20.6513Z" fill="#FCFCFC"/>
</svg>
