<svg width="36" height="25" viewBox="0 0 36 25" fill="none" xmlns="http://www.w3.org/2000/svg">
<path d="M35.0283 3.85599C34.6034 2.34738 33.4269 1.1642 31.9116 0.745953C29.1214 3.56614e-05 17.9047 3.58417e-05 17.9047 3.58417e-05C17.9047 3.58417e-05 6.70919 -0.0178574 3.88992 0.745953C2.38243 1.16532 1.20037 2.34738 0.779879 3.85599C0.250916 6.71553 -0.0118888 9.60973 0.00041265 12.5174C-0.00517893 15.406 0.256507 18.2957 0.779879 21.1373C1.20037 22.6459 2.38243 23.8291 3.88992 24.2541C6.68012 25 17.9047 25 17.9047 25C17.9047 25 29.0934 25 31.9116 24.2541C33.4269 23.8291 34.6034 22.6471 35.0283 21.1373C35.5416 18.2957 35.7921 15.406 35.7742 12.5174C35.7921 9.60973 35.5472 6.71553 35.0283 3.85599ZM14.3216 17.8707V7.14049L23.6584 12.5174L14.3216 17.8707Z" fill="black"/>
</svg>
