<svg width="151" height="28" viewBox="0 0 151 28" fill="none" xmlns="http://www.w3.org/2000/svg">
<path fill-rule="evenodd" clip-rule="evenodd" d="M89.2502 2.99235C89.2502 1.37801 90.3985 0.266602 91.9751 0.266602C93.5516 0.266602 94.6999 1.37801 94.6999 2.99235C94.6999 4.6067 93.5516 5.71812 91.9751 5.71812C90.3985 5.71812 89.2502 4.6067 89.2502 2.99235ZM81.4356 2.99235C81.4356 1.37801 82.5839 0.266602 84.1605 0.266602C85.7371 0.266602 86.8854 1.37801 86.8854 2.99235C86.8854 4.6067 85.7371 5.71812 84.1605 5.71812C82.5839 5.71812 81.4356 4.6067 81.4356 2.99235ZM150.501 8.40662V13.1379C149.855 12.815 149.104 12.635 148.384 12.635C145.697 12.635 144.12 13.8892 144.12 16.9378V26.9405H139.781V8.58668H143.22L143.828 10.201C145.082 9.02132 146.621 8.26382 148.738 8.26382C149.315 8.26382 149.924 8.30106 150.501 8.40662ZM64.534 17.9064C64.534 14.7522 66.7189 12.5667 69.661 12.5667C72.5969 12.5667 74.788 14.7522 74.788 17.9064C74.788 21.0606 72.6031 23.2462 69.661 23.2462C66.7189 23.2462 64.534 21.0606 64.534 17.9064ZM127.243 12.2811C129.856 12.2811 131.545 13.6098 131.936 15.8326H122.191C122.873 13.7153 124.81 12.2811 127.243 12.2811ZM135.381 21.2407C133.09 22.6377 130.471 23.2151 127.858 23.2151C124.885 23.2151 122.768 21.7126 122.197 19.4525H136.206C136.281 18.6267 136.312 18.161 136.312 17.6581C136.312 11.9209 132.73 8.26382 127.175 8.26382C121.62 8.26382 117.641 12.2438 117.641 17.6891C117.641 23.4262 121.62 27.2572 127.529 27.2572C130.502 27.2572 132.941 26.6487 135.374 25.3945V21.2407H135.381ZM40.8543 26.9405L32.9342 17.5835V26.9405H28.5955V1.63259H32.9342V17.5835L40.3143 8.58668H45.4724L37.9495 17.1179L46.2296 26.9405H40.8543ZM114.631 26.9405V16.2921C114.631 10.8095 111.869 8.30107 106.853 8.30107C104.879 8.30107 102.732 9.05237 101.372 10.5922C101.335 9.40628 100.336 8.51218 99.2249 8.51218H94.7434V12.5977H97.4682V26.9344H101.807V17.2234C101.807 14.3549 103.526 12.5294 106.251 12.5294C109.156 12.5294 110.298 13.8209 110.298 17.0806V26.9405H114.631ZM79.1515 22.8861V8.58668H75.4956L74.9245 10.3811C73.5652 9.02133 71.6286 8.26382 69.4438 8.26382C63.963 8.26382 60.1271 12.132 60.1271 17.6891C60.1271 23.4262 63.8513 27.2572 69.3693 27.2572C71.7341 27.2572 74.099 26.3631 75.3155 24.6432C75.3528 25.8602 76.2838 26.9344 77.5004 26.9344C77.5004 26.9344 77.5004 26.9344 81.8018 26.9344V22.8861H79.1515ZM58.8422 8.40662V13.1379C58.1966 12.815 57.4457 12.635 56.7256 12.635C54.038 12.635 52.4614 13.8892 52.4614 16.9378V26.9405H48.1227V8.58668H51.5614L52.1697 10.201C53.4235 9.02132 54.9628 8.26382 57.0794 8.26382C57.6567 8.26382 58.2649 8.30106 58.8422 8.40662ZM90.4668 22.855V11.1696C90.4668 9.77261 89.3557 8.62394 87.9592 8.58668C87.9592 8.58668 88.0337 8.58668 83.4777 8.58668V12.6039H86.1281V24.6805C86.1281 25.8974 87.0592 26.9405 88.2757 26.9405H93.0054V22.855H90.4668ZM19.8561 1.63259H24.4058V16.2921C24.4058 19.7319 23.2575 22.6004 21.1472 24.5749C19.2478 26.2948 16.5602 27.2634 13.6554 27.2634C8.21184 27.2634 2.72488 23.8609 2.72488 16.2921V5.71812H0V1.66985L0.10547 1.63259H4.61796C6.12005 1.63259 7.34284 2.84955 7.34284 4.35834V16.2921C7.34284 19.5891 9.27944 22.9233 13.6492 22.9233C16.7278 22.9233 19.8499 20.8433 19.8499 16.2176V1.63259H19.8561Z" fill="#3A1B0F"/>
</svg>
