<svg width="100" height="100" viewBox="0 0 100 100" fill="none" xmlns="http://www.w3.org/2000/svg">
<path fill-rule="evenodd" clip-rule="evenodd" d="M49.6276 0C76.8251 0 99.0989 22.3515 99.0989 49.5813C99.0989 77.0301 76.8251 99.2174 49.6276 99.2174C22.3285 99.2174 0 77.0223 0 49.5813C0 22.3437 22.3285 0 49.6276 0Z" fill="#3A1B0F"/>
<path fill-rule="evenodd" clip-rule="evenodd" d="M87.2743 32.2255H87.7354C87.5791 33.6797 86.9539 34.6647 85.9691 35.2902C84.8281 35.9078 83.5933 36.2752 81.6707 36.2752H79.9044C73.4802 35.9078 72.1828 42.6703 72.8549 47.6581C73.3239 50.7228 74.4649 54.0454 76.3797 56.336C77.9896 58.1029 80.5218 59.1896 82.6007 57.4305C84.367 56.0311 84.8281 52.646 84.8281 50.7228C84.8281 47.3454 83.5933 42.0449 79.3886 42.0449C78.146 42.0449 77.0049 42.5139 76.0671 43.8117C75.3949 44.7499 75.0901 46.5089 75.0901 48.2836H74.3086C73.7928 44.1166 75.7154 40.7471 80.0607 40.5907C85.1876 40.5907 88.345 44.7577 88.345 49.8941C88.345 55.0383 85.1876 59.8776 79.9044 59.8776C77.1612 59.8776 74.9416 58.8925 73.3239 56.8129C71.7217 54.8819 70.9402 51.6687 70.9402 47.5018C70.9402 42.3576 71.7217 39.2851 73.3239 36.9007C74.9338 34.5084 77.1612 33.3669 80.217 33.3669H82.7492C84.3592 33.5233 85.5002 33.3669 86.1176 33.2106C86.5944 33.0542 87.1102 32.7415 87.2743 32.2255Z" fill="white"/>
<path fill-rule="evenodd" clip-rule="evenodd" d="M51.0579 40.9112L57.3258 54.8819L63.0701 42.0448L63.5859 40.9034H68.3611V41.521H67.8922C67.2747 41.521 66.6026 42.1934 66.6026 42.9752V53.5763V57.7901C66.6026 58.5719 67.2747 59.1896 67.8922 59.1896H68.3611V59.7134H65.149H61.8352V59.1896H62.2964C62.9216 59.1896 63.5937 58.5719 63.5937 57.7901V53.5763V44.1166L56.5521 59.8697H56.1847L49.2994 43.8117V57.7901C49.2994 58.5719 49.9168 59.1896 50.5342 59.1896H51.05V59.7134H47.8379H46.228V59.1896H46.6969C47.369 59.1896 47.9942 58.5719 47.9942 57.7901V42.983C47.9942 42.2559 47.5722 41.5288 46.5406 41.5757C45.7669 41.5757 44.829 42.3575 44.3132 43.5068L37.6858 58.1576C37.1152 59.3537 36.2399 59.7681 35.1458 59.7681L33.6452 59.7212C33.6452 59.7212 33.2857 57.7432 33.3326 57.7432C34.0125 58.2592 34.5283 58.525 34.7315 58.6267C35.56 59.041 36.1305 58.5172 36.3884 57.9543L37.2168 56.0858L31.2615 43.6631C30.5816 42.3654 30.0736 41.6852 29.1357 41.5288V40.9112H32.4964H35.0989V41.5288H34.5753C34.1141 41.5288 33.9109 42.2559 34.2704 42.983L38.7721 52.6459L43.0158 43.2957C43.4848 42.3654 43.1253 41.6305 42.3906 41.5757V40.9034H51.0579V40.9112Z" fill="white"/>
<path fill-rule="evenodd" clip-rule="evenodd" d="M23.7041 53.5841V42.983V42.2559H15.201L15.2557 42.983V53.5841V57.7902C15.2557 58.572 15.8731 59.1896 16.4983 59.1896H17.0141V59.7134H13.802H10.4336V59.1896H10.9025C11.5746 59.1896 12.1999 58.572 12.1999 57.7902V53.5841V42.983C12.1999 42.2012 11.5746 41.5289 10.9025 41.5289H10.4336V40.9113H13.802H14.2709H17.0141H21.9378H24.3762H25.3062H28.5184V41.5289H28.0572C27.3773 41.5289 26.7599 42.2012 26.7599 42.983V53.5841V57.7902C26.7599 58.572 27.3773 59.1896 28.0572 59.1896H28.5184V59.7134H25.3062H21.9378V59.1896H22.4536C23.0711 59.1896 23.6963 58.572 23.6963 57.7902V53.5841H23.7041Z" fill="white"/>
</svg>
