<svg width="199" height="36" viewBox="0 0 199 36" fill="none" xmlns="http://www.w3.org/2000/svg">
<path d="M108.121 33.5486H133.772V30.4193H112.52V20.386H128.48V17.2176H112.52V7.97967H133.772V4.8569H108.121V33.5486Z" fill="#3A1B0F"/>
<path d="M121.455 0.221649L117.975 4.12023L128.878 0.221649H121.455Z" fill="#3A1B0F"/>
<path d="M176.825 30.4193V4.8569H172.817V33.5486H198.742V30.4193H176.825Z" fill="#3A1B0F"/>
<path d="M150.391 4.8569L135.806 33.5486H140.733L144.467 26.123H161.959L165.726 33.5486H170.608L156.009 4.8569H150.391ZM146.311 22.5309L153.181 8.82719L160.141 22.5309H146.311Z" fill="#3A1B0F"/>
<path d="M101.388 13.1561C100.991 8.03185 97.5429 4.8504 91.3385 4.8504H73.2598V33.5421H77.3852V21.5139H89.1487L97.8102 33.5486H103.004C103.004 33.5486 96.7739 25.4516 94.2126 21.553C100.775 19.7993 101.414 14.9033 101.388 13.1561ZM77.3787 18.1238V8.25351H91.2408C94.4277 8.25351 96.2264 9.74644 96.8716 11.6371C97.2953 12.9344 97.0215 14.6425 96.3177 15.7964C95.1576 17.7196 92.9613 18.1238 90.7715 18.1238H77.3787Z" fill="#3A1B0F"/>
<path d="M48.4879 0C36.8546 0 28.9297 8.20135 28.9297 18.1368C28.9297 28.5939 37.6888 35.9673 48.4879 35.9673C59.2869 35.9673 68.0395 28.6917 68.0395 18.1368C68.046 8.20135 60.0168 0 48.4879 0ZM48.351 32.4077C40.3023 32.4077 33.6677 25.934 33.6677 18.1434C33.6677 10.3593 39.9894 3.57913 48.6573 3.57913C57.1167 3.57913 63.3341 10.3593 63.3341 18.1434C63.3406 25.9405 56.3998 32.4077 48.351 32.4077Z" fill="#3A1B0F"/>
<path d="M18.5479 15.0075H21.5197L26.9225 4.8569H22.5754L18.5479 15.0075Z" fill="#3A1B0F"/>
<path d="M4.00803 4.8569H0V33.5486H25.9254V30.4193H4.00803V4.8569Z" fill="#3A1B0F"/>
</svg>
