<svg width="176" height="62" viewBox="0 0 176 62" fill="none" xmlns="http://www.w3.org/2000/svg">
<path d="M71.0893 36.799L74.0279 20.1234C74.6844 16.3864 78.2483 13.3531 81.984 13.3531C85.7198 13.3531 88.2129 16.3864 87.5564 20.1234L84.6178 36.799C83.9613 40.536 80.3974 43.5693 76.6617 43.5693C72.9259 43.5693 70.425 40.536 71.0893 36.799Z" fill="#3A1B0F"/>
<path d="M140.427 17.5982C139.818 15.8939 138.817 14.5648 137.411 13.6188C136.012 12.6729 134.3 12.196 132.292 12.196C130.744 12.196 129.228 12.5087 127.743 13.1263C126.258 13.7517 124.945 14.6586 123.804 15.8547C122.663 17.0587 121.811 18.4894 121.248 20.1546C121.178 18.5676 120.787 17.1682 120.068 15.972C119.349 14.7681 118.404 13.8455 117.223 13.181C116.043 12.5243 114.66 12.196 113.073 12.196C110.87 12.196 108.791 12.8605 106.852 14.1973C104.914 15.5342 103.25 17.5122 101.858 20.1468L101.921 19.795C101.991 19.4119 102.023 19.0367 102.023 18.677C102.023 15.6515 99.7874 13.353 96.6065 13.353C93.0505 13.353 89.6509 16.2457 89.0256 19.8028L86.0245 36.8224C85.9541 37.229 85.9229 37.6199 85.9229 37.9951C85.9229 41.1536 88.2596 43.5537 91.5812 43.5537C95.1841 43.5537 98.6229 40.7236 99.4357 37.1664L99.4513 37.0961L101.663 24.5483C101.765 23.9385 102.351 23.446 102.96 23.446H106.469C107.079 23.446 107.486 23.9385 107.384 24.5483L106.962 26.9484C106.954 27.0969 106.938 27.2533 106.923 27.4097L105.266 36.8224C105.196 37.229 105.164 37.6199 105.164 38.003C105.164 41.1614 107.501 43.5615 110.815 43.5615C114.535 43.5615 118.083 40.5438 118.74 36.8224L120.076 29.2156L120.873 24.5874C120.99 23.9776 121.631 23.485 122.311 23.485H126.195C126.868 23.485 127.321 23.9776 127.196 24.5874L125.008 35.8296L124.836 36.8146C124.179 40.536 126.664 43.5537 130.384 43.5537H130.502C134.222 43.5537 137.77 40.536 138.427 36.8146L140.779 23.4538C141.146 21.257 141.029 19.3025 140.427 17.5982Z" fill="#3A1B0F"/>
<path d="M71.3706 19.9514C70.8157 17.4887 69.7606 15.589 68.1975 14.2286C66.6423 12.8683 64.6962 12.196 62.3751 12.196C60.1321 12.196 58.061 12.8917 56.1697 14.2912C54.2783 15.6827 52.6449 17.6372 51.2694 20.1546L53.6297 6.77031C54.2862 3.03334 51.7931 0 48.0573 0C46.1894 0 44.3684 0.758322 42.9226 1.98574C41.4846 3.20533 40.4217 4.90182 40.0934 6.77031L34.7712 36.9476C34.1303 40.6063 36.5687 43.5693 40.2263 43.5693H40.5155C44.173 43.5693 47.6587 40.6063 48.3074 36.9476C48.7607 39.4258 49.6907 41.3412 51.0975 42.7015C52.5043 44.0619 54.3487 44.7342 56.6307 44.7342C58.9597 44.7342 61.1402 44.054 63.1722 42.7015C65.212 41.3412 66.947 39.4336 68.3616 36.9788C69.784 34.5162 70.7766 31.6782 71.3471 28.4651C71.9098 25.2519 71.9176 22.414 71.3706 19.9514ZM57.5921 25.4943L56.6151 31.0137C56.4276 32.077 55.4116 32.9448 54.3408 32.9448H52.1369C51.0662 32.9448 50.355 32.077 50.5426 31.0137L51.5195 25.4943C51.7071 24.431 52.7231 23.5554 53.7938 23.5554H55.9977C57.0684 23.5554 57.7796 24.4232 57.5921 25.4943Z" fill="#3A1B0F"/>
<path d="M34.5448 19.5214C33.5288 17.1056 31.8172 15.2372 29.4179 13.9159C27.0108 12.5869 24.0643 11.9224 20.5787 11.9224C17.1243 11.9224 13.9591 12.5869 11.0909 13.9159C8.21481 15.245 5.83893 17.1134 3.95543 19.5214C2.07193 21.9293 0.844911 24.7125 0.29002 27.8631C-0.264871 31.0138 -0.0226082 33.7891 1.00902 36.2049C2.04846 38.6128 3.76787 40.4813 6.16719 41.8103C8.57433 43.1393 11.4973 43.8039 14.9517 43.8039C18.4451 43.8039 21.626 43.1393 24.4942 41.8103C27.3624 40.4813 29.7305 38.6128 31.5984 36.2049C33.4663 33.7891 34.6698 31.0138 35.2247 27.8631C35.7953 24.7125 35.5608 21.9293 34.5448 19.5214ZM21.4072 25.0331L20.4537 30.443C20.2661 31.4906 19.2657 32.335 18.2263 32.335H16.0693C15.022 32.335 14.3186 31.4906 14.5062 30.443L15.4596 25.0331C15.6472 23.9854 16.6398 23.1333 17.687 23.1333H19.8441C20.8914 23.1411 21.5869 23.9933 21.4072 25.0331Z" fill="#3A1B0F"/>
<path d="M172.298 13.3765C169.063 11.6174 165.272 13.2983 163.162 16.5896L156.73 26.3855L154.354 17.6372C153.338 13.7048 149.712 11.5471 146.265 12.8292C142.819 14.1035 141.318 17.5122 142.334 21.4446C142.334 21.4446 147.485 40.708 147.703 41.1536L141.256 52.6772C139.364 56.0702 140.388 59.8697 143.553 61.1597C146.711 62.4574 150.814 60.761 152.705 57.368L161.701 41.263C161.81 41.0754 161.904 40.8799 161.99 40.6845L163.311 38.5971C163.537 38.3235 163.756 38.0421 163.952 37.7372L173.963 22.0935C176.065 18.8099 175.276 14.9948 172.298 13.3765Z" fill="#3A1B0F"/>
</svg>
