<svg width="115" height="72" viewBox="0 0 115 72" fill="none" xmlns="http://www.w3.org/2000/svg">
<path d="M13.1562 31.7263H13.2446V35.0701H20.6573V1.55318H12.9893V13.3751H12.901C12.4984 12.1088 11.8701 11.2284 11.0061 10.7337C10.1126 10.2292 9.10133 9.97197 8.09006 9.99176C7.08861 9.98187 6.1068 10.1896 5.19371 10.615C4.31008 11.0404 3.5639 11.7329 2.95517 12.6925C2.34645 13.6521 1.86536 14.9184 1.53154 16.4913C1.1879 18.0544 1.021 20.0033 1.021 22.3182C1.021 26.8689 1.53154 30.2028 2.55263 32.3397C3.57371 34.4765 5.37044 35.5449 7.92315 35.5449C9.28788 35.5449 10.3777 35.2481 11.2024 34.6447C12.037 34.0511 12.685 33.0717 13.1562 31.7263ZM9.74933 29.3223C9.4646 29.1146 9.2486 28.7387 9.09151 28.2143C8.91479 27.5317 8.80679 26.8195 8.77733 26.1171C8.71843 25.2465 8.68897 24.1583 8.68897 22.8623C8.68897 21.5367 8.71843 20.4386 8.77733 19.568C8.80679 18.8557 8.91479 18.1533 9.09151 17.4707C9.2486 16.9464 9.4646 16.5804 9.74933 16.3627C10.0831 16.1352 10.4661 16.0264 10.8588 16.0462C11.2319 16.0363 11.605 16.1451 11.9191 16.3627C12.2039 16.5705 12.4199 16.9464 12.577 17.4707C12.7537 18.1533 12.8617 18.8557 12.901 19.568C12.9599 20.4386 12.9893 21.5466 12.9893 22.8623C12.9893 24.1583 12.9599 25.2366 12.901 26.1171C12.8715 26.8294 12.7635 27.5317 12.577 28.2143C12.4199 28.7387 12.2039 29.1146 11.9191 29.3223C11.605 29.54 11.2319 29.6488 10.8588 29.6389C10.4661 29.6587 10.0831 29.5499 9.74933 29.3223Z" fill="#3A1B0F"/>
<path d="M75.4131 16.7288C75.6979 17.1838 75.8353 17.9159 75.8353 18.9448V35.0701H83.5033V16.6298C83.5033 15.3042 83.3462 14.216 83.032 13.3751C82.7669 12.6035 82.3251 11.9011 81.7557 11.3471C81.2157 10.8326 80.5677 10.4765 79.8608 10.2885C79.0851 10.0907 78.2899 9.99176 77.4946 9.99176C76.3753 9.98186 75.2659 10.2688 74.2644 10.8228C73.2237 11.3768 72.4088 12.3561 71.8099 13.7312C71.3288 12.465 70.671 11.5251 69.8266 10.9118C68.9921 10.2984 67.7746 9.98186 66.1841 9.98186C63.4546 9.98186 61.7168 11.1888 60.7252 13.5927H60.6368V10.615H53.2241V35.0503H60.8921V18.9349C60.8921 17.9159 61.0296 17.174 61.3143 16.7189C61.599 16.2638 62.1292 16.0363 62.8066 16.0363C63.4841 16.0363 63.9259 16.2638 64.2106 16.7189C64.4954 17.174 64.515 17.906 64.515 18.9349V35.0602H72.183V18.9349C72.183 17.9159 72.3204 17.174 72.6052 16.7189C72.8899 16.2638 73.3317 16.0363 74.0091 16.0363C74.6866 16.0363 75.1382 16.2737 75.4131 16.7288Z" fill="#3A1B0F"/>
<path d="M86.3212 33.695C86.8514 34.3479 87.5386 34.8326 88.3045 35.1195C89.1095 35.4361 90.1012 35.5944 91.2695 35.5944C92.379 35.6142 93.4688 35.3372 94.4408 34.7832C95.3637 34.2391 96.0804 33.3784 96.4633 32.3397H96.5517C96.6106 32.8541 96.6597 33.3289 96.7186 33.784C96.7775 34.2292 96.8757 34.6744 97.0131 35.0899H104.426C104.092 34.3875 103.896 33.6158 103.837 32.8343C103.748 31.8252 103.699 30.8162 103.709 29.8071V17.8862C103.709 16.2935 103.493 14.9876 103.051 13.9786C102.639 13.0091 101.991 12.188 101.166 11.5845C100.292 10.9711 99.3008 10.5556 98.2699 10.3677C97.0524 10.1303 95.8252 10.0214 94.5881 10.0313C93.6259 10.0412 92.6735 10.1401 91.731 10.3281C90.7197 10.5161 89.7477 10.9217 88.8739 11.5054C87.9608 12.1286 87.195 12.9893 86.655 13.9885C86.0561 15.0569 85.7616 16.4814 85.7616 18.2523H92.4084C92.4379 16.9563 92.6244 16.0956 92.9583 15.6603C93.3019 15.2251 93.8419 15.0074 94.5782 15.0074C95.8841 15.0074 96.5419 15.7593 96.5419 17.263C96.5419 18.0148 96.375 18.5985 96.0313 19.0041C95.6877 19.4097 95.1084 19.7164 94.2837 19.934L91.2597 20.7057C90.1994 20.9431 89.1684 21.319 88.1866 21.8137C87.4405 22.1896 86.7728 22.7337 86.223 23.3965C85.7321 24.0396 85.3688 24.7815 85.1823 25.5927C84.9565 26.5721 84.8485 27.5713 84.8583 28.5705C84.8485 29.5499 84.9663 30.5194 85.2019 31.4592C85.4179 32.2704 85.8008 33.042 86.3212 33.695ZM92.6244 25.6422C92.8503 25.1377 93.2626 24.742 93.8615 24.4452C94.3524 24.1979 94.8826 24.0198 95.4128 23.9307C95.8841 23.8516 96.2277 23.6538 96.4535 23.3174H96.5419V26.2556C96.5419 27.6109 96.3553 28.6199 95.9822 29.2828C95.6092 29.9456 95.0004 30.2721 94.1561 30.2622C93.891 30.2721 93.6259 30.2127 93.3903 30.0841C93.1546 29.9555 92.9484 29.7675 92.7913 29.54C92.4477 29.0552 92.2808 28.4122 92.2808 27.601C92.2906 26.7799 92.3986 26.127 92.6244 25.6422Z" fill="#3A1B0F"/>
<path d="M50.9759 29.817V17.8862C50.9759 16.2935 50.7599 14.9876 50.3181 13.9786C49.9155 13.019 49.2577 12.188 48.4428 11.5845C47.569 10.9712 46.5773 10.5557 45.5464 10.3677C44.329 10.1303 43.1017 10.0214 41.8646 10.0313C40.9025 10.0412 39.9501 10.1402 39.0075 10.3281C38.173 10.4864 37.3581 10.7832 36.6119 11.2185V9.99176H35.3748C34.2457 9.99176 33.1461 10.3974 32.2625 11.1393C31.3298 11.911 30.6425 13.0289 30.2203 14.5029H30.1319V10.615H22.7192V35.0503H30.3872V21.1014C30.3872 19.479 30.7603 18.3512 31.5163 17.7181C31.9876 17.3421 32.5276 17.075 33.1068 16.9464C33.0676 17.3817 33.0479 17.8071 33.0479 18.2424H39.6948C39.7243 16.9464 39.9108 16.0857 40.2446 15.6505C40.5883 15.2152 41.1283 14.9975 41.8646 14.9975C43.1704 14.9975 43.8184 15.7494 43.8283 17.2531C43.8283 18.005 43.6614 18.5886 43.3177 18.9942C42.9741 19.3998 42.3948 19.7065 41.5701 19.9242L38.5461 20.6958C37.4857 20.9332 36.4548 21.3092 35.473 21.8038C34.7268 22.1797 34.0592 22.7238 33.5094 23.3866C33.0185 24.0297 32.665 24.7716 32.4785 25.573C32.2527 26.5524 32.1447 27.5515 32.1545 28.5507C32.1447 29.5301 32.2625 30.4996 32.4981 31.4394C32.7043 32.2704 33.0872 33.042 33.6076 33.695C34.1377 34.3479 34.825 34.8327 35.5908 35.1195C36.3959 35.4361 37.3876 35.5944 38.5559 35.5944C39.6654 35.6142 40.7552 35.3372 41.7272 34.7832C42.6501 34.2391 43.3668 33.3784 43.7497 32.3397H43.8283C43.8872 32.8541 43.9461 33.3289 43.9952 33.784C44.0541 34.2292 44.1523 34.6744 44.2995 35.0998H51.7122C51.3784 34.3974 51.1821 33.6257 51.1231 32.8442C51.0151 31.8351 50.9759 30.8261 50.9759 29.817ZM43.8184 26.2556C43.8184 27.6109 43.6319 28.62 43.2686 29.2828C42.8955 29.9456 42.2868 30.2721 41.4425 30.2622C41.1774 30.2721 40.9123 30.2127 40.6766 30.0841C40.441 29.9555 40.2348 29.7675 40.0777 29.54C39.7341 29.0552 39.5672 28.4122 39.5672 27.601C39.5672 26.7898 39.685 26.1369 39.9108 25.6323C40.1366 25.1278 40.549 24.7321 41.1479 24.4353C41.6388 24.188 42.169 24.0099 42.6992 23.9209C43.1704 23.8417 43.5141 23.6439 43.7399 23.3075H43.8184V26.2556Z" fill="#3A1B0F"/>
<path d="M22.8174 40.8871H22.729C22.2479 39.5317 21.5901 38.5326 20.7654 37.8796C19.9407 37.2267 18.8509 36.9101 17.4861 36.9101C14.9334 36.9101 13.1465 38.0082 12.1156 40.2143C11.0945 42.4106 10.584 45.7741 10.584 50.2852C10.584 52.6397 10.7509 54.5985 11.0749 56.1715C11.3989 57.7444 11.8603 59.0107 12.4593 59.9703C13.0582 60.92 13.7945 61.573 14.6782 61.939C15.6305 62.3149 16.6418 62.493 17.6629 62.4831C18.6741 62.5029 19.6756 62.2655 20.5789 61.8104C21.4429 61.3553 22.0712 60.4946 22.4738 59.2383L22.8174 59.258V71.0899L30.4854 71.0701V37.5433H22.8272V40.8871H22.8174ZM22.4836 53.0453C22.4541 53.7576 22.3461 54.46 22.1694 55.1426C22.0123 55.6669 21.7963 56.0429 21.5116 56.2506C21.1974 56.4683 20.8243 56.587 20.4512 56.5672C20.0585 56.587 19.6756 56.4782 19.3418 56.2506C19.057 56.0429 18.841 55.6768 18.684 55.1426C18.5072 54.46 18.3992 53.7576 18.3698 53.0453C18.3109 52.1748 18.2814 51.0767 18.2814 49.751C18.2814 48.4254 18.3109 47.3372 18.3698 46.4765C18.3992 45.7741 18.5072 45.0717 18.684 44.399C18.841 43.8747 19.057 43.5087 19.3418 43.291C19.6756 43.0635 20.0585 42.9547 20.4512 42.9744C20.8243 42.9646 21.1974 43.0734 21.5116 43.291C21.7963 43.4988 22.0123 43.8747 22.1694 44.399C22.3461 45.0816 22.4541 45.7741 22.4836 46.4765C22.5425 47.3372 22.5719 48.4254 22.5719 49.751C22.5719 51.0767 22.5327 52.1649 22.4836 53.0453Z" fill="#3A1B0F"/>
<path d="M43.9656 53.6686C43.9656 54.6876 43.8281 55.4295 43.5434 55.8846C43.2587 56.3397 42.7776 56.5672 42.1001 56.5672C41.4227 56.5672 40.9318 56.3397 40.647 55.8846C40.3623 55.4295 40.2249 54.6974 40.2249 53.6686V37.5433H32.5569V55.9736C32.5569 57.2696 32.714 58.3479 33.0282 59.2086C33.3423 60.0693 33.7645 60.742 34.3045 61.2366C34.8445 61.7312 35.4925 62.0775 36.1994 62.2259C36.9751 62.3941 37.7703 62.4831 38.5656 62.4732C41.3245 62.4732 43.1801 61.3157 44.1423 59.0008H44.2307V61.9786H51.6434V37.5433H43.9754V53.6686H43.9656Z" fill="#3A1B0F"/>
<path d="M69.9347 39.4625C69.1492 38.5425 68.1478 37.8697 67.0383 37.4938C65.8896 37.0981 64.5445 36.9101 63.0129 36.9101C61.2751 36.9101 59.7925 37.1476 58.5554 37.6125C57.3674 38.0478 56.3071 38.8195 55.5118 39.8483C54.7165 40.8772 54.1373 42.2028 53.7642 43.8252C53.3911 45.4476 53.2144 47.4361 53.2144 49.7906C53.2144 52.1154 53.3813 54.0841 53.7053 55.7065C54.0293 57.3289 54.5791 58.6546 55.3449 59.6636C56.1303 60.6826 57.1809 61.4444 58.3689 61.8302C59.6158 62.2655 61.1671 62.4831 63.0129 62.4831C66.1939 62.4831 68.4816 61.7214 69.8659 60.1979C71.2503 58.6744 71.9768 56.4089 72.0456 53.4015H65.1434C65.1434 55.0536 64.947 56.1814 64.5641 56.765C64.3874 57.042 64.1518 57.2696 63.8769 57.4279C63.602 57.5861 63.2878 57.6554 62.9736 57.6455C62.6987 57.6455 62.4336 57.5861 62.1881 57.4773C61.9427 57.3685 61.7169 57.2003 61.5303 56.9926C61.1082 56.5573 60.8922 55.6768 60.8922 54.3512V51.1459H72.2616V48.6628C72.2616 46.4369 72.0652 44.5771 71.6823 43.0833C71.2994 41.5894 70.7201 40.3825 69.9347 39.4625ZM65.0943 46.7139H60.8725V45.6257C60.8725 44.3298 61.0198 43.38 61.3241 42.7766C61.6187 42.1731 62.1685 41.8763 62.9638 41.8763C63.7885 41.8763 64.3481 42.1731 64.6427 42.7766C64.9372 43.38 65.0943 44.3298 65.0943 45.6257V46.7139Z" fill="#3A1B0F"/>
<path d="M90.4742 39.4625C89.6887 38.5425 88.6873 37.8697 87.5778 37.4938C86.4291 37.0981 85.084 36.9101 83.5524 36.9101C81.8146 36.9101 80.332 37.1476 79.1047 37.6125C77.9168 38.0478 76.8662 38.8195 76.0611 39.8483C75.2659 40.8772 74.6866 42.2028 74.3135 43.8252C73.9404 45.4476 73.7637 47.4361 73.7637 49.7906C73.7637 52.1154 73.9306 54.0841 74.2546 55.7065C74.5786 57.3289 75.1284 58.6546 75.8942 59.6636C76.6797 60.6826 77.7302 61.4444 78.9182 61.8302C80.1651 62.2655 81.7164 62.4831 83.5622 62.4831C86.7433 62.4831 89.0309 61.7214 90.4153 60.1979C91.8094 58.6744 92.5262 56.4089 92.5851 53.4015H85.6829C85.6829 55.0536 85.4865 56.1814 85.1135 56.765C84.9367 57.042 84.7011 57.2696 84.4262 57.4279C84.1415 57.5861 83.8371 57.6554 83.5229 57.6455C83.248 57.6455 82.9829 57.5861 82.7375 57.4773C82.492 57.3685 82.2662 57.2003 82.0796 56.9926C81.6575 56.5573 81.4415 55.6768 81.4415 54.3512V51.1459H92.8207V48.6628C92.8207 46.4369 92.6243 44.5771 92.2414 43.0833C91.8389 41.5894 91.2596 40.3825 90.4742 39.4625ZM85.6436 46.7139H81.4218V45.6257C81.4218 44.3298 81.5691 43.38 81.8735 42.7766C82.168 42.1731 82.7178 41.8763 83.5131 41.8763C84.3378 41.8763 84.8975 42.1731 85.192 42.7766C85.4865 43.38 85.6436 44.3298 85.6338 45.6257V46.7139H85.6436Z" fill="#3A1B0F"/>
<path d="M113.115 40.3034C112.84 39.5317 112.408 38.8294 111.839 38.2754C111.299 37.7609 110.651 37.3949 109.954 37.2168C109.178 37.019 108.383 36.92 107.587 36.92C104.858 36.92 103.002 38.127 102.011 40.5309H101.922V37.5532H94.4998V61.9885H102.168V45.8632C102.168 44.8343 102.305 44.1022 102.59 43.6472C102.875 43.1921 103.356 42.9744 104.043 42.9646C104.72 42.9646 105.211 43.1921 105.496 43.6472C105.781 44.1022 105.918 44.8343 105.918 45.8632V61.9885H113.586V43.5482C113.586 42.2226 113.429 41.1443 113.115 40.3034Z" fill="#3A1B0F"/>
</svg>
