<svg width="109" height="138" viewBox="0 0 109 138" fill="none" xmlns="http://www.w3.org/2000/svg">
<path d="M89.4549 20.4673C95.105 20.4673 99.6852 15.8856 99.6852 10.2337C99.6852 4.58177 95.105 0 89.4549 0C83.8049 0 79.2246 4.58177 79.2246 10.2337C79.2246 15.8856 83.8049 20.4673 89.4549 20.4673Z" fill="#3A1B0F"/>
<path d="M52.6523 72.4957C68.7522 72.4957 81.8037 59.4399 81.8037 43.3348C81.8037 27.2297 68.7522 14.1739 52.6523 14.1739C36.5525 14.1739 23.501 27.2297 23.501 43.3348C23.501 59.4399 36.5525 72.4957 52.6523 72.4957Z" fill="#3A1B0F"/>
<path d="M25.1111 116.417H27.9558C28.3388 116.417 28.5342 116.612 28.5342 116.995V121.373C28.5342 121.624 28.6045 121.78 28.753 121.835C28.9015 121.889 29.0656 121.843 29.261 121.686L35.1147 116.378C35.4273 116.089 35.7008 115.995 35.9588 116.104C36.2088 116.214 36.3339 116.479 36.3339 116.902V120.209C36.3339 120.56 36.2088 120.85 35.9588 121.076L34.1925 122.64C33.8096 123.007 33.6767 123.453 33.8173 123.977L37.2952 136.071C37.3499 136.267 37.3421 136.423 37.2483 136.532C37.1623 136.65 37.0138 136.704 36.8028 136.704H33.7626C33.3953 136.704 33.1765 136.54 33.0983 136.212L30.488 126.674C30.3942 126.361 30.2457 126.182 30.0503 126.127C29.855 126.072 29.6361 126.142 29.386 126.361L28.9796 126.737C28.6905 127.01 28.542 127.323 28.542 127.69V136.126C28.542 136.509 28.3466 136.704 27.9636 136.704H25.1188C24.7359 136.704 24.5405 136.509 24.5405 136.126V116.988C24.5327 116.612 24.7281 116.417 25.1111 116.417Z" fill="#3A1B0F"/>
<path d="M41.9843 116.417H44.8839C45.2668 116.417 45.4622 116.612 45.4622 116.995V136.134C45.4622 136.517 45.2668 136.712 44.8839 136.712H41.9843C41.6014 136.712 41.406 136.517 41.406 136.134V116.995C41.406 116.612 41.6014 116.417 41.9843 116.417Z" fill="#3A1B0F"/>
<path d="M51.5192 116.417H54.4188C54.8017 116.417 54.9971 116.612 54.9971 116.995V123.953C54.9971 124.336 55.1925 124.532 55.5754 124.532H58.5296C58.9126 124.532 59.108 124.336 59.108 123.953V116.995C59.108 116.612 59.3034 116.417 59.6863 116.417H62.5858C62.9687 116.417 63.1641 116.612 63.1641 116.995V136.134C63.1641 136.517 62.9687 136.712 62.5858 136.712H59.6863C59.3034 136.712 59.108 136.517 59.108 136.134V129.176C59.108 128.793 58.9126 128.597 58.5296 128.597H55.5754C55.1925 128.597 54.9971 128.793 54.9971 129.176V136.134C54.9971 136.517 54.8017 136.712 54.4188 136.712H51.5192C51.1363 136.712 50.9409 136.517 50.9409 136.134V116.995C50.9409 116.612 51.1363 116.417 51.5192 116.417Z" fill="#3A1B0F"/>
<path d="M74.6526 137.064C72.3549 137.064 70.659 136.22 69.5804 134.523C68.4941 132.834 67.9548 130.184 67.9548 126.588C67.9548 119.567 70.2057 116.057 74.7073 116.057C77.005 116.057 78.701 116.902 79.7795 118.598C80.858 120.287 81.4051 122.937 81.4051 126.533C81.4129 133.554 79.1621 137.064 74.6526 137.064ZM74.6839 120.216C73.8555 120.216 73.238 120.732 72.8394 121.764C72.4409 122.796 72.2455 124.399 72.2455 126.564C72.2455 128.73 72.4409 130.333 72.8394 131.365C73.238 132.397 73.8477 132.913 74.6839 132.913C75.5123 132.913 76.1297 132.397 76.5283 131.365C76.9269 130.333 77.1223 128.73 77.1223 126.564C77.1223 124.399 76.9269 122.796 76.5283 121.764C76.1297 120.732 75.5201 120.216 74.6839 120.216Z" fill="#3A1B0F"/>
<path d="M0.570732 87.811H11.6451C12.0281 87.811 12.2234 88.0064 12.2234 88.3895V107.528C12.2234 107.911 12.0281 108.106 11.6451 108.106H8.74563C8.36267 108.106 8.16725 107.911 8.16725 107.528V92.447C8.16725 92.064 7.97187 91.8685 7.58892 91.8685H4.63473C4.25178 91.8685 4.0564 92.064 4.0564 92.447V107.528C4.0564 107.911 3.86098 108.106 3.47803 108.106H0.578555C0.195602 108.106 0.000225571 107.911 0.000225571 107.528V88.3895C-0.0075898 88.0064 0.187779 87.811 0.570732 87.811Z" fill="#3A1B0F"/>
<path d="M29.5893 88.3895V107.528C29.5893 107.911 29.3939 108.106 29.011 108.106H26.1662C25.7832 108.106 25.5878 107.911 25.5878 107.528V92.447C25.5878 92.064 25.3925 91.8685 25.0095 91.8685H22.9228C22.5398 91.8685 22.3444 92.0718 22.3444 92.4783C22.3054 96.7313 22.1412 99.9601 21.8521 102.165C21.5629 104.369 21.0862 105.91 20.4141 106.793C19.7498 107.676 18.7728 108.114 17.4989 108.114H16.5454C16.3735 108.114 16.2329 108.067 16.1234 107.966C16.014 107.872 15.9515 107.731 15.9358 107.559L15.7014 104.659C15.6857 104.252 15.8655 104.049 16.2485 104.049H16.8268C17.2332 104.049 17.5458 103.775 17.7725 103.236C17.9913 102.696 18.171 101.461 18.2961 99.5379C18.4211 97.6147 18.4836 94.6439 18.4836 90.6177V88.3817C18.4836 87.9986 18.679 87.8032 19.062 87.8032H29.0032C29.4017 87.811 29.5893 88.0065 29.5893 88.3895Z" fill="#3A1B0F"/>
<path d="M33.5048 107.934C33.411 107.817 33.3797 107.661 33.4188 107.473L37.9126 88.1863C38.0064 87.8579 38.2252 87.6937 38.5535 87.6937H42.0001C42.3283 87.6937 42.5394 87.8579 42.641 88.1863L47.1035 107.473C47.1426 107.669 47.1113 107.825 47.0176 107.934C46.9238 108.052 46.7753 108.106 46.5799 108.106H43.6257C43.274 108.106 43.0786 107.934 43.0161 107.583L42.6097 105.464C42.555 105.112 42.3361 104.94 41.9688 104.94H38.319C37.9674 104.94 37.772 105.112 37.7095 105.464L37.3031 107.583C37.2483 107.934 37.0295 108.106 36.6622 108.106H33.9346C33.7471 108.114 33.5986 108.052 33.5048 107.934ZM38.6942 101.242C38.7879 101.359 38.9364 101.414 39.1318 101.414H41.1638C41.3592 101.414 41.4999 101.359 41.6015 101.242C41.6953 101.125 41.7265 100.969 41.6875 100.781L40.6168 94.6595C40.5777 94.4875 40.4995 94.3624 40.3667 94.2999C40.2416 94.2295 40.1166 94.2295 39.9915 94.2999C39.8665 94.3702 39.7805 94.4875 39.7414 94.6595L38.6082 100.781C38.5691 100.969 38.6004 101.125 38.6942 101.242Z" fill="#3A1B0F"/>
<path d="M51.5114 87.811H54.4109C54.7939 87.811 54.9893 88.0064 54.9893 88.3895V95.3475C54.9893 95.7306 55.1846 95.926 55.5676 95.926H58.5218C58.9048 95.926 59.1002 95.7306 59.1002 95.3475V88.3895C59.1002 88.0064 59.2955 87.811 59.6785 87.811H62.578C62.9609 87.811 63.1563 88.0064 63.1563 88.3895V107.528C63.1563 107.911 62.9609 108.106 62.578 108.106H59.6785C59.2955 108.106 59.1002 107.911 59.1002 107.528V100.57C59.1002 100.187 58.9048 99.9913 58.5218 99.9913H55.5676C55.1846 99.9913 54.9893 100.187 54.9893 100.57V107.528C54.9893 107.911 54.7939 108.106 54.4109 108.106H51.5114C51.1285 108.106 50.9331 107.911 50.9331 107.528V88.3895C50.9253 88.0064 51.1206 87.811 51.5114 87.811Z" fill="#3A1B0F"/>
<path d="M68.9631 87.811H77.7944C78.1774 87.811 78.3728 88.0064 78.3728 88.3895V91.2353C78.3728 91.6183 78.1774 91.8138 77.7944 91.8138H72.816C72.4253 91.8138 72.2377 92.0092 72.2377 92.3923V95.1755C72.2377 95.5586 72.4331 95.754 72.816 95.754H75.7468C76.1298 95.754 76.3251 95.9495 76.3251 96.3325V98.9985C76.3251 99.3815 76.1298 99.577 75.7468 99.577H72.816C72.4253 99.577 72.2377 99.7724 72.2377 100.156V103.58C72.2377 103.963 72.4331 104.158 72.816 104.158H78.4118C78.7948 104.158 78.9902 104.354 78.9902 104.737V107.52C78.9902 107.903 78.7948 108.099 78.4118 108.099H68.9631C68.5801 108.099 68.3847 107.903 68.3847 107.52V88.3817C68.3769 88.0064 68.5723 87.811 68.9631 87.811Z" fill="#3A1B0F"/>
<path d="M94.0739 88.3895V91.2353C94.0739 91.6183 93.8785 91.8138 93.4955 91.8138H90.1896C89.8066 91.8138 89.6113 92.0092 89.6113 92.3923V107.528C89.6113 107.911 89.4159 108.106 89.0329 108.106H86.1334C85.7505 108.106 85.5551 107.911 85.5551 107.528V92.3923C85.5551 92.0092 85.3597 91.8138 84.9768 91.8138H81.7021C81.3192 91.8138 81.1238 91.6183 81.1238 91.2353V88.3895C81.1238 88.0064 81.3192 87.811 81.7021 87.811H93.5033C93.8784 87.811 94.0739 88.0064 94.0739 88.3895Z" fill="#3A1B0F"/>
<path d="M94.5116 107.934C94.4178 107.817 94.3865 107.661 94.4256 107.473L98.9195 88.1863C99.0132 87.8579 99.2321 87.6937 99.5603 87.6937H103.007C103.335 87.6937 103.546 87.8579 103.648 88.1863L108.11 107.473C108.149 107.669 108.118 107.825 108.024 107.934C107.931 108.052 107.782 108.106 107.587 108.106H104.633C104.281 108.106 104.085 107.934 104.023 107.583L103.617 105.464C103.562 105.112 103.343 104.94 102.976 104.94H99.3259C98.9742 104.94 98.7788 105.112 98.7163 105.464L98.3099 107.583C98.2552 107.934 98.0363 108.106 97.669 108.106H94.9415C94.7539 108.114 94.6132 108.052 94.5116 107.934ZM99.701 101.242C99.7948 101.359 99.9433 101.414 100.139 101.414H102.171C102.366 101.414 102.507 101.359 102.608 101.242C102.702 101.125 102.733 100.969 102.694 100.781L101.624 94.6595C101.585 94.4875 101.506 94.3624 101.374 94.2999C101.248 94.2295 101.123 94.2295 100.998 94.2999C100.873 94.3702 100.787 94.4875 100.748 94.6595L99.615 100.781C99.576 100.969 99.6072 101.125 99.701 101.242Z" fill="#3A1B0F"/>
</svg>
