<svg width="194" height="58" viewBox="0 0 194 58" fill="none" xmlns="http://www.w3.org/2000/svg">
<path d="M132.536 0.610678L17.9002 0.604492C7.97006 0.604492 0.0061892 8.5772 0.0061892 18.5106L0 57.9412L114.617 57.9226C124.541 57.9226 132.536 49.9499 132.536 40.0165V0.610678Z" fill="#3A1B0F"/>
<path d="M40.7594 18.3868H40.6172C39.059 18.3868 37.5998 18.727 36.2456 19.4136C35.7572 18.7456 34.9966 18.3868 34.0073 18.3868C33.018 18.3868 32.2513 18.7394 31.769 19.4074C30.4149 18.727 28.9557 18.3868 27.3976 18.3868H27.2492C24.677 18.3868 22.4448 19.2651 20.6084 21.0093C18.7844 22.7597 17.8569 24.8813 17.8569 27.343V31.0726C17.8569 33.5281 18.7782 35.662 20.6084 37.4063C22.4386 39.1505 24.677 40.0288 27.2492 40.0288H27.3976C28.7455 40.0288 30.0192 39.769 31.2249 39.2556V41.037C31.2249 41.7606 31.4908 42.3915 32.0288 42.9296C32.5605 43.4368 33.2406 43.7028 34.0012 43.7028C34.6875 43.7028 35.3058 43.4863 35.8499 43.0471C36.3507 42.6266 36.6784 42.1132 36.7712 41.4823C36.7897 41.3339 36.796 41.1854 36.796 41.0432V39.2618C37.9893 39.7752 39.2631 40.035 40.611 40.035H40.7532C43.3316 40.035 45.5637 39.1505 47.4001 37.4124C49.2303 35.6682 50.1578 33.5343 50.1578 31.0788V27.3491C50.1578 24.8874 49.2303 22.7659 47.4001 21.0155C45.5699 19.2651 43.3378 18.3868 40.7594 18.3868ZM40.7594 34.7281H40.6172C39.5599 34.7281 38.6818 34.3817 37.9213 33.6642C37.1731 32.9467 36.8083 32.0994 36.8083 31.0788V27.3491C36.8083 26.3286 37.1731 25.4874 37.9213 24.7637C38.6818 24.0463 39.5599 23.6999 40.6172 23.6999H40.7594C41.8291 23.6999 42.7194 24.0463 43.4676 24.7637C44.2281 25.4874 44.5867 26.3348 44.5867 27.3491V31.0788C44.5867 32.0994 44.222 32.9467 43.4676 33.6642C42.7133 34.3755 41.8229 34.7281 40.7594 34.7281ZM27.4038 34.7281H27.2553C26.1918 34.7281 25.3076 34.3817 24.5533 33.6642C23.7989 32.9467 23.4342 32.0994 23.4342 31.0788V27.3491C23.4342 26.3286 23.7989 25.4874 24.5533 24.7637C25.3076 24.0463 26.1918 23.6999 27.2553 23.6999H27.4038C28.4549 23.6999 29.3391 24.0463 30.0996 24.7761C30.854 25.4936 31.2311 26.341 31.2311 27.3553V31.085C31.2311 32.0994 30.854 32.9467 30.0934 33.6704C29.3453 34.3755 28.4549 34.7281 27.4038 34.7281Z" fill="white"/>
<path d="M61.8997 18.3868H61.7513C59.074 18.3868 56.7491 19.2651 54.8447 21.0093C52.9464 22.7535 51.9819 24.8812 51.9819 27.3367V31.0664C51.9819 33.5219 52.9464 35.6496 54.8447 37.3939C56.7491 39.1319 59.0678 40.0164 61.7513 40.0164H61.8997C64.5832 40.0164 66.9081 39.1319 68.8063 37.3939C70.7045 35.6496 71.6753 33.5219 71.6753 31.0664V27.3367C71.6753 24.8812 70.7107 22.7535 68.8063 21.0093C66.9081 19.2651 64.5832 18.3868 61.8997 18.3868ZM61.8997 34.7157H61.7513C60.6383 34.7157 59.7232 34.3693 58.938 33.6456C58.1527 32.9282 57.7756 32.0808 57.7756 31.0664V27.3367C57.7756 26.3162 58.1527 25.475 58.938 24.7575C59.7232 24.04 60.6445 23.6875 61.7513 23.6875H61.8997C63.0003 23.6875 63.9092 24.04 64.7007 24.7575C65.4983 25.4812 65.8817 26.3162 65.8817 27.3367V31.0664C65.8817 32.0808 65.4983 32.9282 64.6945 33.6456C63.9092 34.3693 63.0065 34.7157 61.8997 34.7157Z" fill="white"/>
<path d="M83.3553 18.3868H83.2007C81.5746 18.3868 80.0535 18.727 78.6561 19.4073C78.149 18.7393 77.3514 18.3868 76.3312 18.3868C75.5521 18.3868 74.8411 18.6466 74.2537 19.1599C73.6972 19.6795 73.4189 20.3104 73.4189 21.0217V41.0369C73.4189 41.7606 73.6972 42.3915 74.2784 42.942C74.8349 43.4306 75.5459 43.6966 76.3312 43.6966C77.1165 43.6966 77.7967 43.4368 78.3964 42.9172C78.9467 42.3915 79.2249 41.7606 79.2249 41.0369V39.2247C80.4616 39.738 81.7972 39.9978 83.2069 39.9978H83.3615C86.045 39.9978 88.376 39.1195 90.2804 37.3753C92.1848 35.6311 93.1494 33.5096 93.1494 31.054V27.3244C93.1494 24.875 92.1848 22.7473 90.2804 21.0093C88.3637 19.2651 86.0326 18.3868 83.3553 18.3868ZM83.3553 34.6971H83.2007C82.0878 34.6971 81.1726 34.3507 80.3812 33.6333C79.5959 32.9158 79.2188 32.0684 79.2188 31.054V27.3244C79.2188 26.31 79.6021 25.4688 80.3812 24.7452C81.1726 24.0277 82.0878 23.6813 83.2007 23.6813H83.3553C84.4559 23.6813 85.371 24.0277 86.1624 24.7513C86.9539 25.4688 87.3434 26.31 87.3434 27.3244V31.054C87.3434 32.0622 86.9539 32.9096 86.1624 33.6333C85.371 34.3507 84.4559 34.6971 83.3553 34.6971Z" fill="white"/>
<path d="M113.807 19.1476C113.263 18.6466 112.558 18.3868 111.76 18.3868C110.728 18.3868 109.936 18.7393 109.429 19.4073C108.026 18.727 106.505 18.3868 104.885 18.3868H104.736C102.053 18.3868 99.734 19.2651 97.8296 21.0093C95.9252 22.7535 94.9668 24.8812 94.9668 27.3367V31.0664C94.9668 33.5219 95.9314 35.6496 97.8296 37.3939C99.734 39.1319 102.053 40.0164 104.736 40.0164H104.885C106.511 40.0164 108.032 39.6762 109.435 38.9958C109.936 39.6638 110.734 40.0164 111.76 40.0164C112.552 40.0164 113.263 39.7504 113.807 39.2494C114.376 38.736 114.673 38.0804 114.673 37.3567V21.0279C114.673 20.3166 114.376 19.6733 113.807 19.1476ZM104.891 34.7157H104.742C103.629 34.7157 102.714 34.3693 101.929 33.6456C101.144 32.9282 100.76 32.0808 100.76 31.0664V27.3367C100.76 26.3162 101.144 25.475 101.929 24.7575C102.708 24.04 103.629 23.6875 104.742 23.6875H104.891C105.991 23.6875 106.907 24.04 107.698 24.7575C108.489 25.4812 108.879 26.3162 108.879 27.3367V31.0664C108.879 32.0808 108.489 32.9282 107.692 33.6456C106.9 34.3693 105.991 34.7157 104.891 34.7157Z" fill="white"/>
<path d="M175.49 0.573486L136.147 0.592042L136.165 39.9484C136.165 49.8447 144.197 57.9535 154.09 57.9535H175.497C185.377 57.9535 193.465 49.8694 193.465 39.9855V18.5971C193.459 8.71319 185.377 0.573486 175.49 0.573486Z" fill="#3A1B0F"/>
<path d="M178.025 23.8793H174.037H171.811L167.761 17.1189C167.446 16.587 166.754 16.4138 166.222 16.7292L165.764 16.9952C165.232 17.3168 165.053 18.0096 165.369 18.5477L167.149 21.5227L168.559 23.8731L170.494 27.1141C170.259 26.9595 170.043 26.7554 169.851 26.5018L167.681 23.8731H161.751L159.587 26.5018C159.383 26.7554 159.167 26.9595 158.932 27.1141L160.873 23.8731L162.277 21.5227L164.064 18.5477C164.373 18.0096 164.206 17.3168 163.674 16.9952L163.217 16.7292C162.685 16.4138 161.993 16.587 161.671 17.1189L157.627 23.8793H155.426H151.494C151.055 23.8793 150.498 24.3679 150.498 24.8194L150.56 26.6317C150.56 27.077 151.061 27.4481 151.506 27.4481H152.013L153.695 38.0063C154.202 40.0597 155.525 40.0597 157.46 40.035L172.689 39.9731C174.569 39.9731 175.453 39.7443 175.948 37.8331L177.611 27.4543H178.075C178.514 27.4543 179.052 27.0832 179.052 26.6379V24.7576C179.052 24.3061 178.483 23.8793 178.025 23.8793ZM157.683 25.4009C157.85 25.104 158.227 24.9988 158.524 25.1658C158.821 25.3328 158.926 25.7101 158.759 26.007C158.592 26.2977 158.227 26.4152 157.918 26.242C157.627 26.075 157.522 25.6977 157.683 25.4009ZM158.351 37.2888H157.819C157.349 37.2888 157.009 37.0228 156.935 36.6764L155.673 29.5078C155.568 29.0563 155.939 28.4873 156.489 28.4873H157.009C157.565 28.4873 158.085 28.8584 158.159 29.3099L159.105 36.6764C159.161 37.0166 158.827 37.2888 158.351 37.2888ZM162.871 37.2888H162.438C161.962 37.2888 161.554 37.0228 161.516 36.6764L160.929 29.3099C160.88 28.8584 161.294 28.4873 161.85 28.4873H162.37C162.932 28.4873 163.402 28.8584 163.415 29.3099L163.693 36.6764C163.711 37.0166 163.347 37.2888 162.871 37.2888ZM168.293 36.6764C168.262 37.0228 167.867 37.2888 167.397 37.2888H166.951C166.475 37.2888 166.104 37.0228 166.104 36.6764L166.172 29.3099C166.179 28.8584 166.636 28.4873 167.199 28.4873H167.712C168.275 28.4873 168.707 28.8584 168.677 29.3099L168.293 36.6764ZM171.756 25.4009C171.917 25.6977 171.818 26.0689 171.521 26.242C171.218 26.409 170.847 26.2977 170.68 26.007C170.513 25.7101 170.618 25.3328 170.915 25.1658C171.218 25.005 171.589 25.104 171.756 25.4009ZM173.938 29.5078L172.881 36.6764C172.807 37.0228 172.498 37.2888 172.028 37.2888H171.465C171.001 37.2888 170.643 37.0228 170.692 36.6764L171.434 29.3099C171.496 28.8584 171.997 28.4873 172.572 28.4873H173.079C173.629 28.4873 174.013 29.0625 173.938 29.5078Z" fill="white"/>
</svg>
