<svg width="129" height="149" viewBox="0 0 129 149" fill="none" xmlns="http://www.w3.org/2000/svg">
<mask id="mask0_61_51" style="mask-type:luminance" maskUnits="userSpaceOnUse" x="0" y="0" width="129" height="149">
<path d="M128.172 0H0V148.533H128.172V0Z" fill="white"/>
</mask>
<g mask="url(#mask0_61_51)">
<mask id="mask1_61_51" style="mask-type:luminance" maskUnits="userSpaceOnUse" x="0" y="0" width="129" height="149">
<path d="M128.172 0H0V148.533H128.172V0Z" fill="white"/>
</mask>
<g mask="url(#mask1_61_51)">
<path d="M53.6524 41.1849C51.2766 39.1053 47.7362 37.6746 44.2662 36.4316C36.654 33.7578 33.4028 30.8339 33.4028 26.6748C33.4028 22.4766 36.6227 19.5448 41.2416 19.5448C46.6108 19.5448 51.8784 24.9079 51.8784 30.3649V30.4978H52.3863V19.2243H51.9018L51.8862 19.3338C51.7924 19.8263 51.3703 20.6472 49.5181 20.6472C48.127 20.6472 46.8374 20.2641 45.4776 19.8654C44.1177 19.4588 42.7109 19.0445 41.1869 19.0445C38.1702 19.0445 35.1691 20.4283 32.9573 22.8518C30.6518 25.3692 29.3857 28.7387 29.3857 32.335C29.3857 39.8715 34.6064 42.7406 39.7098 44.5466C48.9085 47.8301 52.6521 49.7299 52.6521 55.4291C52.6521 59.2365 49.057 63.0907 42.1951 63.0907C37.5215 63.0907 34.1062 59.7837 32.4884 57.8136C30.1907 55.0148 28.6433 51.4655 28.6433 48.995V48.8621H28.1353V63.3565H28.6198L28.6354 63.2471C28.8074 62.2073 30.136 61.0971 31.8319 61.0971C33.0824 61.0971 34.3719 61.5662 35.8725 62.1135C37.7091 62.778 39.788 63.5363 42.2498 63.5363C51.4485 63.5363 57.1459 56.1719 57.1459 49.3546C57.1459 45.8756 56.0361 43.2801 53.6524 41.1849Z" fill="#3A1B0F"/>
</g>
<mask id="mask2_61_51" style="mask-type:luminance" maskUnits="userSpaceOnUse" x="0" y="0" width="129" height="149">
<path d="M128.172 0H0V148.533H128.172V0Z" fill="white"/>
</mask>
<g mask="url(#mask2_61_51)">
<path d="M73.9724 21.8355C75.4964 20.2563 77.5206 19.5527 80.5373 19.5527C83.601 19.5527 85.6408 20.2563 87.1726 21.8355C90.0252 24.689 91.2991 30.701 91.2991 41.3256C91.2991 52.6694 90.2206 57.7667 87.1726 60.8157C85.6173 62.3715 83.5072 63.0985 80.5373 63.0985C77.6144 63.0985 75.5277 62.3715 73.9724 60.8157C70.9244 57.7667 69.8459 52.6694 69.8459 41.3256C69.8459 30.701 71.1198 24.689 73.9724 21.8355ZM94.6597 25.5647C90.8927 21.3586 85.883 19.0445 80.5451 19.0445C75.0509 19.0445 69.9788 21.4133 66.2586 25.721C62.6479 29.9036 60.655 35.4465 60.655 41.3256C60.655 53.5763 69.5802 63.5442 80.5451 63.5442C91.5492 63.5442 100.498 53.5763 100.498 41.3256C100.49 35.3683 98.4189 29.7629 94.6597 25.5647Z" fill="#3A1B0F"/>
</g>
<mask id="mask3_61_51" style="mask-type:luminance" maskUnits="userSpaceOnUse" x="0" y="0" width="129" height="149">
<path d="M128.172 0H0V148.533H128.172V0Z" fill="white"/>
</mask>
<g mask="url(#mask3_61_51)">
<path d="M59.131 69.5796V70.0878H64.9769C65.0629 70.0878 65.0707 70.0956 65.0785 70.1034C65.2036 70.2754 64.6878 71.7139 64.4377 72.4097L53.9573 101.977L40.3038 70.0956H47.0172V69.5796H25.3843V70.0878H31.2067L50.0965 112.875L50.1356 112.953H50.6123L64.9926 72.4957C65.735 70.3145 65.9617 70.0878 66.2899 70.0878H71.4246V69.5796H59.131Z" fill="#3A1B0F"/>
</g>
<mask id="mask4_61_51" style="mask-type:luminance" maskUnits="userSpaceOnUse" x="0" y="0" width="129" height="149">
<path d="M128.172 0H0V148.533H128.172V0Z" fill="white"/>
</mask>
<g mask="url(#mask4_61_51)">
<path d="M70.4711 97.8493L76.8797 80.3762L83.007 97.8493H70.4711ZM97.3325 112.516L80.7249 69.65H80.2403L65.4458 110.108C64.6096 112.453 64.5158 112.524 64.0859 112.524H59.428V113.032H70.9478V112.524H65.3364C65.2895 112.524 65.2739 112.516 65.2739 112.516C65.1645 112.359 65.6334 111.062 65.9382 110.202L70.3148 98.3652H83.218L88.2433 112.524H82.2879V113.032H102.788V112.524H97.3325V112.516Z" fill="#3A1B0F"/>
</g>
<mask id="mask5_61_51" style="mask-type:luminance" maskUnits="userSpaceOnUse" x="0" y="0" width="129" height="149">
<path d="M128.172 0H0V148.533H128.172V0Z" fill="white"/>
</mask>
<g mask="url(#mask5_61_51)">
<path d="M29.1279 119.818C29.1279 119.567 29.2999 119.395 29.5265 119.395C29.9954 119.395 30.2221 120.201 31.0896 120.599C31.0896 119.497 30.7926 119.302 30.7926 118.856C30.7926 118.598 30.988 118.426 31.2068 118.426C31.4257 118.426 31.6132 118.598 31.6132 118.856C31.6132 119.302 31.3162 119.497 31.3162 120.599C32.1837 120.201 32.4104 119.395 32.8793 119.395C33.106 119.395 33.2779 119.567 33.2779 119.818C33.2779 120.443 32.3322 120.177 31.4022 120.764C32.3322 121.358 33.2779 121.084 33.2779 121.71C33.2779 121.96 33.106 122.132 32.8793 122.132C32.4104 122.132 32.1837 121.326 31.3162 120.928C31.3162 122.046 31.6132 122.226 31.6132 122.671C31.6132 122.937 31.4257 123.101 31.2068 123.101C30.988 123.101 30.7926 122.929 30.7926 122.671C30.7926 122.226 31.0896 122.046 31.0896 120.928C30.2221 121.326 29.9954 122.132 29.5265 122.132C29.2999 122.132 29.1279 121.96 29.1279 121.71C29.1279 121.084 30.0736 121.358 31.0036 120.764C30.0814 120.177 29.1279 120.451 29.1279 119.818Z" fill="#3A1B0F"/>
</g>
<mask id="mask6_61_51" style="mask-type:luminance" maskUnits="userSpaceOnUse" x="0" y="0" width="129" height="149">
<path d="M128.172 0H0V148.533H128.172V0Z" fill="white"/>
</mask>
<g mask="url(#mask6_61_51)">
<path d="M37.0527 122.061H36.5447V129.488H37.0527V122.061Z" fill="#3A1B0F"/>
</g>
<mask id="mask7_61_51" style="mask-type:luminance" maskUnits="userSpaceOnUse" x="0" y="0" width="129" height="149">
<path d="M128.172 0H0V148.533H128.172V0Z" fill="white"/>
</mask>
<g mask="url(#mask7_61_51)">
<path d="M36.7948 120.091C36.5448 120.091 36.3572 120.287 36.3572 120.537C36.3572 120.795 36.5448 120.982 36.7948 120.982C37.0449 120.982 37.2325 120.795 37.2325 120.537C37.2325 120.287 37.0449 120.091 36.7948 120.091Z" fill="#3A1B0F"/>
</g>
<mask id="mask8_61_51" style="mask-type:luminance" maskUnits="userSpaceOnUse" x="0" y="0" width="129" height="149">
<path d="M128.172 0H0V148.533H128.172V0Z" fill="white"/>
</mask>
<g mask="url(#mask8_61_51)">
<path d="M39.1941 124.016C39.3347 123.093 40.0381 122.452 40.9056 122.452C41.7809 122.452 42.4687 123.093 42.5937 124.016H39.1941ZM40.9056 121.96C39.8037 121.96 38.6235 122.734 38.6235 124.43C38.6235 125.9 39.5536 126.885 40.9369 126.885C42.1483 126.885 42.75 126.088 43.0001 125.611L43.0158 125.587L42.5781 125.329L42.5625 125.353C42.2421 126.017 41.6637 126.4 40.9681 126.4C40.468 126.4 39.9834 126.197 39.6395 125.837C39.3035 125.486 39.1315 125.009 39.1472 124.501H43.1252V124.477C43.1486 123.734 42.9142 123.078 42.4609 122.616C42.0623 122.194 41.5074 121.96 40.9056 121.96Z" fill="#3A1B0F"/>
</g>
<mask id="mask9_61_51" style="mask-type:luminance" maskUnits="userSpaceOnUse" x="0" y="0" width="129" height="149">
<path d="M128.172 0H0V148.533H128.172V0Z" fill="white"/>
</mask>
<g mask="url(#mask9_61_51)">
<path d="M49.3228 125.861L47.7206 121.733L46.1107 125.853L44.532 122.077L44.5241 122.061H43.9614L46.1107 127.096L47.7206 122.968L49.3228 127.096L51.5189 122.061H50.9562L49.3228 125.861Z" fill="#3A1B0F"/>
</g>
<mask id="mask10_61_51" style="mask-type:luminance" maskUnits="userSpaceOnUse" x="0" y="0" width="129" height="149">
<path d="M128.172 0H0V148.533H128.172V0Z" fill="white"/>
</mask>
<g mask="url(#mask10_61_51)">
<path d="M52.9179 124.016C53.0586 123.093 53.762 122.452 54.6295 122.452C55.497 122.452 56.1926 123.093 56.3176 124.016H52.9179ZM54.6295 121.96C53.5275 121.96 52.3474 122.734 52.3474 124.43C52.3474 125.9 53.2774 126.885 54.6608 126.885C55.8721 126.885 56.4739 126.088 56.724 125.611L56.7318 125.587L56.2942 125.329L56.2864 125.353C55.9659 126.017 55.3876 126.4 54.692 126.4C54.1918 126.4 53.7073 126.197 53.3634 125.837C53.0274 125.486 52.8554 125.009 52.871 124.501H56.8491V124.477C56.8725 123.734 56.6381 123.078 56.1848 122.616C55.7862 122.194 55.2313 121.96 54.6295 121.96Z" fill="#3A1B0F"/>
</g>
<mask id="mask11_61_51" style="mask-type:luminance" maskUnits="userSpaceOnUse" x="0" y="0" width="129" height="149">
<path d="M128.172 0H0V148.533H128.172V0Z" fill="white"/>
</mask>
<g mask="url(#mask11_61_51)">
<path d="M58.9357 118.403H58.4277V126.76H58.9357V118.403Z" fill="#3A1B0F"/>
</g>
<mask id="mask12_61_51" style="mask-type:luminance" maskUnits="userSpaceOnUse" x="0" y="0" width="129" height="149">
<path d="M128.172 0H0V148.533H128.172V0Z" fill="white"/>
</mask>
<g mask="url(#mask12_61_51)">
<path d="M62.3197 121.96C61.8976 121.96 61.5303 122.186 61.3193 122.577V122.061H60.8113V126.76H61.3193V124.235C61.3193 123.695 61.3193 122.437 62.2415 122.437C62.4291 122.437 62.515 122.484 62.5697 122.523L62.5932 122.538L62.8511 122.077L62.8276 122.061C62.6244 121.975 62.4056 121.96 62.3197 121.96Z" fill="#3A1B0F"/>
</g>
<mask id="mask13_61_51" style="mask-type:luminance" maskUnits="userSpaceOnUse" x="0" y="0" width="129" height="149">
<path d="M128.172 0H0V148.533H128.172V0Z" fill="white"/>
</mask>
<g mask="url(#mask13_61_51)">
<path d="M67.5013 122.061L65.821 126.158L63.9062 122.077L63.8984 122.061H63.3123L65.5318 126.815L64.383 129.488H64.9691L68.0874 122.061H67.5013Z" fill="#3A1B0F"/>
</g>
<mask id="mask14_61_51" style="mask-type:luminance" maskUnits="userSpaceOnUse" x="0" y="0" width="129" height="149">
<path d="M128.172 0H0V148.533H128.172V0Z" fill="white"/>
</mask>
<g mask="url(#mask14_61_51)">
<path d="M74.0586 121.96C73.3083 121.96 72.8941 122.358 72.6596 122.718V118.403H72.1516V126.76H72.6596V124.321C72.6596 123.922 72.683 123.469 72.9019 123.078C73.066 122.788 73.3864 122.444 74.0195 122.444C74.5587 122.444 74.8088 122.718 74.9026 122.882C75.0667 123.132 75.0824 123.476 75.0824 123.805V126.76H75.5982V123.805C75.5982 123.414 75.5825 122.96 75.3637 122.616C75.2152 122.374 74.8323 121.96 74.0586 121.96Z" fill="#3A1B0F"/>
</g>
<mask id="mask15_61_51" style="mask-type:luminance" maskUnits="userSpaceOnUse" x="0" y="0" width="129" height="149">
<path d="M128.172 0H0V148.533H128.172V0Z" fill="white"/>
</mask>
<g mask="url(#mask15_61_51)">
<path d="M79.6386 126.4C78.5366 126.4 77.7082 125.548 77.7082 124.422C77.7082 123.289 78.5366 122.444 79.6386 122.444C80.7406 122.444 81.569 123.289 81.569 124.422C81.569 125.556 80.7406 126.4 79.6386 126.4ZM79.6386 121.96C78.2553 121.96 77.1768 123.039 77.1768 124.422C77.1768 125.806 78.2631 126.885 79.6386 126.885C81.0141 126.885 82.1004 125.806 82.1004 124.422C82.1083 123.046 81.0219 121.96 79.6386 121.96Z" fill="#3A1B0F"/>
</g>
<mask id="mask16_61_51" style="mask-type:luminance" maskUnits="userSpaceOnUse" x="0" y="0" width="129" height="149">
<path d="M128.172 0H0V148.533H128.172V0Z" fill="white"/>
</mask>
<g mask="url(#mask16_61_51)">
<path d="M86.5709 124.891C86.5709 125.173 86.5709 125.689 86.2817 126.041C86.0785 126.283 85.7737 126.408 85.3751 126.408C84.9765 126.408 84.6796 126.283 84.4764 126.041C84.1872 125.689 84.1872 125.173 84.1872 124.891V122.061H83.6792V125.017C83.6792 125.423 83.7183 125.9 84.0387 126.307C84.4295 126.815 85.0469 126.885 85.3751 126.885C85.7112 126.885 86.3286 126.815 86.7194 126.307C87.032 125.9 87.0789 125.423 87.0789 125.017V122.061H86.5709V124.891Z" fill="#3A1B0F"/>
</g>
<mask id="mask17_61_51" style="mask-type:luminance" maskUnits="userSpaceOnUse" x="0" y="0" width="129" height="149">
<path d="M128.172 0H0V148.533H128.172V0Z" fill="white"/>
</mask>
<g mask="url(#mask17_61_51)">
<path d="M90.5254 124.016C90.4785 123.992 90.4316 123.977 90.3769 123.961L90.2909 123.93C89.8376 123.75 89.4859 123.602 89.4859 123.172C89.4859 122.82 89.7517 122.46 90.244 122.46C90.6035 122.46 90.8849 122.648 91.0256 122.96L91.0412 122.992L91.471 122.757L91.4632 122.734C91.2522 122.249 90.7989 121.968 90.2206 121.968C89.4859 121.968 88.9545 122.476 88.9545 123.187C88.9545 123.414 89.0248 123.617 89.1655 123.805C89.3765 124.078 89.7204 124.227 90.1971 124.422L90.3378 124.485C90.9396 124.735 91.2131 124.923 91.2131 125.407C91.2131 125.986 90.7911 126.408 90.2049 126.408C89.6579 126.408 89.2124 126.049 89.0717 125.493L89.0639 125.47L88.5715 125.619L88.5793 125.642C88.7747 126.416 89.4 126.893 90.2128 126.893C90.9787 126.893 91.7524 126.424 91.7524 125.392C91.7524 125.173 91.7211 124.891 91.5101 124.618C91.2366 124.282 90.8771 124.149 90.5254 124.016Z" fill="#3A1B0F"/>
</g>
<mask id="mask18_61_51" style="mask-type:luminance" maskUnits="userSpaceOnUse" x="0" y="0" width="129" height="149">
<path d="M128.172 0H0V148.533H128.172V0Z" fill="white"/>
</mask>
<g mask="url(#mask18_61_51)">
<path d="M93.4094 124.016C93.5501 123.093 94.2535 122.444 95.121 122.444C95.9885 122.444 96.684 123.086 96.8091 124.016H93.4094ZM97.3405 124.469C97.364 123.734 97.1295 123.07 96.6762 122.609C96.2698 122.186 95.7149 121.96 95.1131 121.96C94.0112 121.96 92.8311 122.734 92.8311 124.438C92.8311 125.908 93.7611 126.893 95.1444 126.893C96.3558 126.893 96.9576 126.088 97.2077 125.611L97.2233 125.587L96.7856 125.329L96.77 125.361C96.4496 126.025 95.8712 126.408 95.1757 126.408C94.6755 126.408 94.1909 126.197 93.8471 125.845C93.511 125.493 93.3391 125.017 93.3547 124.501H97.3327V124.469H97.3405Z" fill="#3A1B0F"/>
</g>
</g>
</svg>
