<svg width="157" height="40" viewBox="0 0 157 40" fill="none" xmlns="http://www.w3.org/2000/svg">
<g clip-path="url(#clip0_63_258)">
<path d="M0.481445 19.7619V39.5714L4.71948 39.4286L8.90936 39.2857L9.15016 37.6667L9.39095 36.0952L10.3541 37.1429C12.7621 39.8095 17.5299 40.6667 21.9124 39.1905C30.9183 36.1905 33.567 22.7619 26.5839 15.5238C24.1278 13 21.5753 11.9048 17.9152 11.9048C14.544 11.9048 12.136 12.7143 10.3541 14.4762L9.15016 15.6667L9.05384 7.95238L8.90936 0.238098L4.71948 0.0952377L0.481445 -0.0476189V19.7619ZM19.7453 20.7143C23.598 24.381 21.768 31.7143 16.663 32.619C14.4477 33.0476 11.3173 31.6667 10.1133 29.7619C8.95752 27.9048 8.81304 24.381 9.87255 22.3333C11.7026 18.8571 16.9038 18 19.7453 20.7143Z" fill="#3A1B0F"/>
<path d="M116.546 7.85714V15.8095L115.005 14.4762C112.741 12.619 110.67 11.9048 107.54 11.9048C102.146 11.9048 97.2819 15.4762 95.5482 20.619C94.296 24.2857 94.7776 30 96.6077 33.2857C98.8712 37.4762 103.254 40 108.214 40C110.237 40 115.005 37.9048 115.438 36.8571C115.92 35.619 116.546 36.1905 116.546 37.8571V39.5714L120.784 39.4286L124.974 39.2857V19.7619V0.238094L120.784 0.0952377L116.546 -0.0476189V7.85714ZM113.03 20C118.135 23.0476 116.835 31.5238 111.056 32.5714C108.744 33 105.71 31.7143 104.506 29.7619C103.35 27.9048 103.206 24.381 104.265 22.3333C105.902 19.2857 110.044 18.1905 113.03 20Z" fill="#3A1B0F"/>
<path d="M38.9609 13.2381C34.4821 15.5238 31.7852 20.3333 31.7852 26C31.7852 37.0476 43.4879 43.8571 51.675 37.5238L53.4569 36.1429V37.8571V39.5238H57.7913H62.1256V25.9524V12.381H57.7913H53.4569V14.1429V15.9048L52.1566 14.6667C48.6891 11.4762 43.4398 10.9048 38.9609 13.2381ZM50.8082 20.5238C55.1425 24.3333 53.5051 31.619 48.0149 32.619C44.4029 33.2857 40.4539 29.9048 40.4539 26.0952C40.4539 20.1429 46.5701 16.8571 50.8082 20.5238Z" fill="#3A1B0F"/>
<path d="M78.1144 12.5714C77.2957 12.9524 76.0435 13.8571 75.3693 14.5714L74.1653 15.8571V14.0952V12.381H69.8309H65.4966V25.9524V39.5238H69.8309H74.1653V31.4286C74.1653 22.7143 74.4543 21.3333 76.6696 19.8095C78.4033 18.619 81.2447 18.8095 82.545 20.2381C84.0862 21.8571 84.2788 23.1905 84.2788 32V39.5714L88.5168 39.4286L92.7067 39.2857V28.8095C92.7067 17.0476 92.4659 15.9048 89.1911 13.4286C87.6981 12.3333 86.9757 12.1429 83.6046 12C80.9558 11.9524 79.1739 12.1429 78.1144 12.5714Z" fill="#3A1B0F"/>
<path d="M133.835 13.2381C124.251 18.1905 124.396 33.7143 134.076 38.6667C138.073 40.7143 143.034 40.2857 146.549 37.5238L148.331 36.1429V37.8571V39.5238H152.666H157V25.9524V12.3809H152.666H148.331V14.1429V15.9048L147.031 14.6667C143.563 11.4762 138.314 10.9048 133.835 13.2381ZM145.682 20.5238C150.017 24.3333 148.379 31.619 142.889 32.619C139.277 33.2857 135.328 29.9048 135.328 26.0952C135.328 20.1429 141.444 16.8571 145.682 20.5238Z" fill="#3A1B0F"/>
</g>
<defs>
<clipPath id="clip0_63_258">
<rect width="157" height="40" fill="white"/>
</clipPath>
</defs>
</svg>
