<svg width="155" height="67" viewBox="0 0 155 67" fill="none" xmlns="http://www.w3.org/2000/svg">
<path d="M88.8329 0V34.0193H63.7595V0" fill="#3A1B0F"/>
<path d="M14.4861 41.248L16.6336 46.0626H12.4951L14.4861 41.248ZM15.1889 38.3239H13.842L8.12262 51.7239H10.0751L11.7538 47.7831H17.4151L19.1916 51.7239H21.144L15.1889 38.3239ZM28.7925 40.0472H30.0177C31.8665 40.0472 32.6062 40.8097 32.6257 42.0621C32.6453 43.1776 32.0614 44.2329 30.0177 44.2329H28.7925V40.0472ZM26.8927 38.3962V51.7239H28.7925V45.9529H29.5903C30.563 45.9529 31.3608 46.2652 33.1129 48.9959L34.8671 51.7239H37.1536C36.2352 50.4574 35.9028 50.0088 35.3358 49.092C34.3213 47.4345 33.581 46.2065 32.3721 45.406C33.795 44.8395 34.5939 43.686 34.5939 42.1398C34.5939 39.831 32.9179 38.3956 30.2323 38.3956L26.8927 38.3962ZM38.867 45.0584C38.867 42.1294 41.0726 39.9804 44.0379 39.9804C47.0233 39.9804 49.2283 42.1294 49.2283 45.0584C49.2283 47.9689 47.0233 50.1364 44.0379 50.1364C41.072 50.1358 38.867 47.9689 38.867 45.0584ZM36.8983 45.0584C36.8983 48.6722 39.6475 51.8949 43.9983 51.8949C48.5055 51.8949 51.196 48.6532 51.196 45.0584C51.196 41.3479 48.4272 38.2218 44.0368 38.2218C39.7257 38.2218 36.8983 41.3669 36.8983 45.0584ZM64.8848 41.3669C63.2441 40.41 61.8375 39.9804 60.294 39.9804C57.2467 39.9804 54.9803 42.1485 54.9803 45.0779C54.9803 48.0666 57.1679 50.1358 60.3722 50.1358C61.8771 50.1358 63.5179 49.6085 65.0222 48.6325V50.7224C63.7134 51.4067 62.2872 51.8944 60.1968 51.8944C55.1959 51.8944 53.0121 48.0471 53.0121 45.2534C53.0121 41.1915 56.0752 38.2213 60.3141 38.2213C61.6816 38.2213 63.0687 38.5531 64.8854 39.3162L64.8848 41.3669ZM78.6541 51.7239H76.7549V45.9187H69.2954V51.7239H67.3956V38.3924H69.2954V44.1976H76.7549V38.3924H78.6541V51.7239ZM89.1826 40.1162H83.5366V44.1291H88.9871V45.8497H83.5366V50.0006H89.3581V51.7212H81.6373V38.3962H89.1826V40.1162ZM90.7147 46.5134V48.3371H95.4457V46.5134H90.7147ZM99.6488 40.1162H101.9C103.644 40.1162 104.173 41.1692 104.173 42.1452C104.173 43.4714 103.253 44.2329 101.822 44.2329H99.6488V40.1162ZM97.7484 38.3962V51.7239H99.6482V45.9529H101.646C104.738 45.9529 106.14 44.3116 106.14 42.2239C106.14 40.1162 104.816 38.3962 101.9 38.3962H97.7484ZM109.217 45.0584C109.217 42.1294 111.422 39.9804 114.388 39.9804C117.374 39.9804 119.578 42.1294 119.578 45.0584C119.578 47.9689 117.374 50.1364 114.388 50.1364C111.422 50.1358 109.217 47.9689 109.217 45.0584ZM107.248 45.0584C107.248 48.6722 109.998 51.8949 114.348 51.8949C118.856 51.8949 121.547 48.6532 121.547 45.0584C121.547 41.3479 118.778 38.2218 114.387 38.2218C110.075 38.2218 107.248 41.3669 107.248 45.0584ZM130.191 41.3305C129.068 40.2568 127.97 39.9435 127.066 39.9435C125.83 39.9435 124.946 40.5887 124.946 41.525C124.946 44.0824 130.713 44.0433 130.713 48.2801C130.713 50.3699 129.146 51.8939 126.988 51.8939C125.535 51.8939 124.365 51.5034 123.262 50.6621V48.2404C124.23 49.4901 125.456 50.1733 126.772 50.1733C128.265 50.1733 128.952 49.2365 128.952 48.4941C128.952 45.7427 123.185 45.4299 123.185 41.7797C123.185 39.6127 124.773 38.2235 127.224 38.2235C128.246 38.2235 129.263 38.5357 130.192 39.1625V41.3305H130.191ZM137.838 41.248L139.985 46.0626H135.847L137.838 41.248ZM138.541 38.3239H137.194L131.474 51.7239H133.426L135.105 47.7831H140.767L142.543 51.7239H144.495L138.541 38.3239ZM0.985729 63.3815H3.88752V64.4178H0.0700601V56.388H0.986272L0.985729 63.3815ZM7.38237 58.1042L8.41861 61.0158H6.42054L7.38237 58.1042ZM7.72127 56.3359H7.07118L4.30951 64.4178H5.25179L6.06318 62.0526H8.79552L9.65254 64.4178H10.5948L7.72127 56.3359ZM12.5201 57.4243H13.375C14.2303 57.4243 14.5062 57.9418 14.5062 58.5425C14.5062 59.4017 14.0593 59.8237 13.1376 59.8237H12.5196L12.5201 57.4243ZM11.6044 64.4178H13.8035C15.4159 64.4178 16.0085 63.2637 16.0085 62.2752C16.0085 61.1912 15.4257 60.4021 14.4639 60.1783C15.1455 59.8134 15.4561 59.2724 15.4561 58.4366C15.4561 57.4248 14.863 56.3886 13.4705 56.3886H11.6044V64.4178ZM12.5201 60.8616H13.6411C14.6056 60.8616 15.058 61.3791 15.058 62.1101C15.058 62.7103 14.7658 63.3821 13.6807 63.3821H12.5196L12.5201 60.8616ZM17.8669 60.4032C17.8669 58.6348 18.9325 57.3374 20.3663 57.3374C21.8093 57.3374 22.8743 58.6348 22.8743 60.4032C22.8743 62.1596 21.8093 63.469 20.3663 63.469C18.932 63.4684 17.8669 62.1596 17.8669 60.4032ZM16.9171 60.4032C16.9171 62.5843 18.2444 64.5221 20.3467 64.5221C22.5257 64.5221 23.8237 62.5723 23.8237 60.4032C23.8237 58.164 22.4876 56.2843 20.3658 56.2843C18.2813 56.2843 16.9171 58.1754 16.9171 60.4032ZM26.3806 57.3727H26.9775C27.8763 57.3727 28.2364 57.8321 28.2461 58.5849C28.2554 59.2572 27.9713 59.8937 26.9775 59.8937H26.3806V57.3727ZM25.466 56.388V64.4178H26.3811V60.9289H26.7695C27.243 60.9289 27.6308 61.1179 28.4813 62.7684L29.3286 64.4178H30.4305C29.9879 63.652 29.8277 63.3805 29.5539 62.8265C29.0646 61.8239 28.7072 61.0826 28.1234 60.5998C28.8104 60.2582 29.196 59.5635 29.196 58.6332C29.196 57.2423 28.3879 56.3875 27.0817 56.3875L25.466 56.388ZM33.8906 58.1042L34.9268 61.0158H32.9288L33.8906 58.1042ZM34.2295 56.3359H33.5794L30.8183 64.4178H31.7611L32.5709 62.0526H35.3037L36.1613 64.4178H37.1036L34.2295 56.3359ZM42.2967 57.4243H40.0727V64.4178H39.1571V57.4243H36.9325V56.388H42.2962L42.2967 57.4243ZM43.5936 60.4032C43.5936 58.6348 44.6592 57.3374 46.093 57.3374C47.536 57.3374 48.6016 58.6348 48.6016 60.4032C48.6016 62.1596 47.536 63.469 46.093 63.469C44.6592 63.4684 43.5936 62.1596 43.5936 60.4032ZM42.6438 60.4032C42.6438 62.5843 43.9706 64.5221 46.074 64.5221C48.2524 64.5221 49.5504 62.5723 49.5504 60.4032C49.5504 58.164 48.2144 56.2843 46.0925 56.2843C44.0086 56.2843 42.6438 58.1754 42.6438 60.4032ZM51.0884 56.388V64.4178H52.0041V56.388H51.0884ZM54.624 57.3727H55.2204C56.1197 57.3727 56.4798 57.8321 56.489 58.5849C56.4988 59.2572 56.2148 59.8937 55.2204 59.8937H54.624V57.3727ZM53.7089 56.388V64.4178H54.6246V60.9289H55.0134C55.4859 60.9289 55.8748 61.1179 56.7247 62.7684L57.5714 64.4178H58.6739C58.2313 63.652 58.0711 63.3805 57.7974 62.8265C57.308 61.8239 56.9501 61.0826 56.3668 60.5998C57.0539 60.2582 57.44 59.5635 57.44 58.6332C57.44 57.2423 56.6308 56.3875 55.3252 56.3875L53.7089 56.388ZM63.4375 57.4243H60.7138V59.8416H63.343V60.8778H60.7138V63.381H63.5217V64.4172H59.7987V56.3875H63.4375V57.4243ZM68.0881 57.4243H69.1791C70.0247 57.4243 70.2806 58.0608 70.2806 58.6495C70.2806 59.4517 69.8347 59.9106 69.1411 59.9106H68.0881V57.4243ZM67.1729 56.388V64.4178H68.0886V60.9468H69.0564C70.5543 60.9468 71.231 59.9584 71.231 58.6968C71.231 57.4237 70.5912 56.3875 69.1797 56.3875L67.1729 56.388ZM77.9883 64.4178H77.0731V60.9121H73.4637V64.4178H72.548V56.388H73.4637V59.8758H77.0731V56.388H77.9883V64.4178ZM82.0278 58.1042L83.0641 61.0158H81.0665L82.0278 58.1042ZM82.3673 56.3359H81.7172L78.9555 64.4178H79.8983L80.7086 62.0526H83.4415L84.2991 64.4178H85.2414L82.3673 56.3359ZM87.2867 57.3727H87.8841C88.7835 57.3727 89.143 57.8321 89.1522 58.5849C89.162 59.2572 88.878 59.8937 87.8841 59.8937H87.2867V57.3727ZM86.3721 56.388V64.4178H87.2867V60.9289H87.675C88.1491 60.9289 88.5369 61.1179 89.3874 62.7684L90.2336 64.4178H91.3366C90.894 63.652 90.7332 63.3805 90.46 62.8265C89.9707 61.8239 89.6139 61.0826 89.029 60.5998C89.7165 60.2582 90.1021 59.5635 90.1021 58.6332C90.1021 57.2423 89.2929 56.3875 87.9878 56.3875L86.3721 56.388ZM98.417 64.4178H97.5019V58.1667L95.4967 61.2748H95.3458L93.3596 58.1667L93.3406 64.4178H92.425V56.388H93.2841L95.4207 59.6847L97.5676 56.388H98.417V64.4178ZM102.553 58.1042L103.589 61.0158H101.591L102.553 58.1042ZM102.892 56.3359H102.241L99.4815 64.4178H100.423L101.234 62.0526H103.966L104.823 64.4178H105.765L102.892 56.3359ZM112.056 58.1754C111.265 57.5975 110.585 57.3374 109.841 57.3374C108.371 57.3374 107.278 58.6462 107.278 60.4146C107.278 62.2177 108.333 63.4684 109.879 63.4684C110.604 63.4684 111.397 63.1502 112.122 62.5604V63.8193C111.49 64.2288 110.803 64.5215 109.794 64.5215C107.382 64.5215 106.328 62.2068 106.328 60.5205C106.328 58.0689 107.806 56.2838 109.85 56.2838C110.51 56.2838 111.179 56.4831 112.056 56.9393V58.1754ZM117.284 57.4243H114.56V59.8416H117.19V60.8778H114.56V63.381H117.369V64.4172H113.646V56.3875H117.284V57.4243ZM124.104 61.2656C124.104 63.2333 123.169 64.5221 121.26 64.5221C119.905 64.5221 118.596 63.5738 118.596 61.3835V56.3886H119.511V61.1353C119.511 62.0433 119.605 62.4208 119.897 62.7858C120.263 63.2452 120.724 63.469 121.279 63.469C121.985 63.469 122.493 63.186 122.785 62.8211C123.113 62.4083 123.188 61.8196 123.188 61.0658V56.3891H124.104L124.104 61.2656ZM130.438 57.4243H128.213V64.4178H127.299V57.4243H125.073V56.388H130.437L130.438 57.4243ZM131.719 56.388V64.4178H132.634V56.388H131.719ZM148.011 61.2656C148.011 63.2333 147.077 64.5221 145.168 64.5221C143.813 64.5221 142.503 63.5738 142.503 61.3835V56.3886H143.418V61.1353C143.418 62.0433 143.513 62.4208 143.804 62.7858C144.172 63.2452 144.632 63.469 145.187 63.469C145.893 63.469 146.401 63.186 146.692 62.8211C147.021 62.4083 147.097 61.8196 147.097 61.0658V56.3891H148.012V61.2656H148.011ZM153.321 57.4243H150.597V59.8416H153.227V60.8778H150.597V63.381H153.406V64.4172H149.682V56.3875H153.321V57.4243ZM137.71 57.3374C139.134 57.3374 140.18 58.6826 140.18 60.439C140.18 62.0781 139.163 63.4695 137.729 63.4695C136.014 63.4695 135.156 62.0428 135.156 60.4157C135.155 59.2013 135.787 57.3374 137.71 57.3374ZM138.455 64.4286C140.01 64.0501 141.13 62.373 141.13 60.4276C141.13 58.0695 139.671 56.2843 137.748 56.2843C135.664 56.2843 134.206 57.975 134.206 60.4032C134.206 62.4088 135.307 64.0501 136.899 64.4286C137.795 65.2455 138.813 65.9401 140.057 66.0579L140.885 65.0342C140.227 65.2221 139.586 65.0342 138.454 64.44V64.4286H138.455ZM151.851 38.3924H154.156L149.213 44.6869V51.7239H147.315V44.6679L142.371 38.3924H144.677L148.243 42.9865L151.851 38.3924ZM1.89977 50.0001H7.91679V51.7206H0V38.3924H1.89977V50.0001Z" fill="#3A1B0F"/>
</svg>
