<svg width="220" height="42" viewBox="0 0 220 42" fill="none" xmlns="http://www.w3.org/2000/svg">
<path d="M113.597 13.9574C113.597 9.93061 113.307 9.66408 110.359 9.44391V8.59799H126.49C126.519 9.22953 126.704 11.9237 126.89 13.9922L125.969 14.1081C125.604 12.2598 125.193 11.298 124.642 10.707C124.057 10.0812 122.841 9.82051 120.594 9.82051H117.802C116.771 9.82051 116.69 9.89584 116.69 10.9677V19.5892H120.408C123.583 19.5892 123.693 19.3748 124.057 16.64H124.978V23.8014H124.057C123.872 22.4282 123.762 21.6866 123.287 21.2868C122.806 20.887 121.995 20.8059 120.408 20.8059H116.69V27.2894C116.69 29.3926 116.916 30.5051 117.617 30.9454C118.317 31.3858 119.638 31.3858 121.37 31.3858C123.467 31.3858 125.198 31.2061 126.004 30.3139C126.635 29.6534 127.22 28.3961 127.776 26.6984L128.697 26.8085C128.517 27.8456 127.706 31.6117 127.411 32.6083H110V31.7566C113.313 31.5422 113.603 31.2757 113.603 27.2604V13.9574H113.597Z" fill="#3A1B0F"/>
<path d="M156.435 27.2546C156.435 31.2757 156.724 31.5364 159.742 31.7508V32.6025H150.029V31.7508C153.046 31.5364 153.336 31.2699 153.336 27.2546V13.9574C153.336 9.93061 153.041 9.66987 150.029 9.44391V8.59799H159.742V9.44391C156.724 9.66987 156.435 9.93061 156.435 13.9574V27.2546Z" fill="#3A1B0F"/>
<path d="M171.749 8.59799V9.44391C168.801 9.66987 168.506 9.93061 168.506 13.9574V21.1709C168.506 24.3113 168.917 26.681 170.052 28.3381C171.199 29.9662 172.89 30.8875 175.358 30.8875C177.675 30.8875 179.592 29.8909 180.768 28.1237C181.984 26.2697 182.424 23.025 182.424 19.9252V18.4246C182.424 14.5542 182.279 12.5205 182.129 11.3733C181.943 10.0812 180.953 9.55979 178.526 9.44971V8.60377H187.359V9.44971C185.338 9.52503 184.376 10.0812 184.191 11.3733C184.046 12.5205 183.895 14.5484 183.895 18.4246V20.4004C183.895 24.6821 183.229 27.7124 181.092 30.001C179.511 31.6986 176.864 32.6604 174.286 32.6604C172.259 32.6604 169.936 32.1853 168.245 30.7774C166.287 29.1898 165.407 26.6868 165.407 22.4688V13.9574C165.407 9.93061 165.117 9.66408 162.024 9.44391V8.59799H171.749Z" fill="#3A1B0F"/>
<path d="M195.451 8.59799L204.359 27.6139L213.122 8.59799H219.192V9.44391C215.989 9.71043 215.769 9.84949 215.885 13.9574L216.175 27.2489C216.285 31.38 216.401 31.4958 219.638 31.745V32.5967H209.925V31.745C213.012 31.4901 213.122 31.3742 213.082 27.2489L212.937 12.3583H212.786L203.768 32.1911H202.847L194.344 12.8739H194.269L193.898 23.1815C193.754 26.6463 193.754 28.68 193.898 29.8272C194.084 31.1946 194.964 31.5596 197.362 31.745V32.5967H188.714V31.745C190.776 31.5596 191.547 31.1946 191.802 29.8272C192.022 28.68 192.242 26.4725 192.439 22.8107L192.833 15.0583C193.093 10.1044 192.833 9.71043 189.375 9.44391V8.59799H195.451Z" fill="#3A1B0F"/>
<path d="M88.8586 8.59799C88.737 10.2956 88.598 12.2714 88.459 14.1718H89.3799C89.8201 12.5495 90.2603 11.5182 90.6657 10.9967C91.216 10.2956 92.2123 9.81471 95.4906 9.81471H97.2166V27.2489C97.2166 31.2699 96.9213 31.5306 93.4692 31.745V32.5967H104.213V31.745C100.611 31.5306 100.315 31.2641 100.315 27.2489V9.81471H102.783C105.065 9.81471 106.206 10.0755 106.831 10.7823C107.388 11.3675 107.787 12.4046 108.158 14.1718H109.073C108.951 12.3988 108.789 10.1566 108.679 8.59799H88.8586Z" fill="#3A1B0F"/>
<path d="M87.5267 30.3371C86.5362 29.2304 85.7658 28.2802 84.4452 26.3218C83.3332 24.6937 81.8215 22.1501 81.167 21.0435C84.1499 19.821 86.0265 17.6424 86.0265 14.5774C86.0265 12.4394 85.0708 10.7823 83.5996 9.84948C82.2327 8.92245 80.1359 8.5922 77.7785 8.5922H71.6679V9.80894L75.0505 9.81472C75.4675 9.81472 76.2842 9.82052 77.1588 9.82052C79.9158 9.82052 82.7134 11.2169 82.7134 15.0931C82.7134 16.9008 82.1632 18.7143 80.582 19.9716C79.5857 20.7828 78.4099 20.8233 76.8924 20.8233L71.6621 20.8175V22.0401L76.736 22.0343C77.877 22.0343 78.4736 22.3993 79.0586 23.3611C80.0896 25.0993 81.6419 27.7819 82.7771 29.4448C84.1788 31.4785 85.4647 32.7647 89.6987 32.8806H90.2084L90.2779 32.1795C88.9689 31.8609 88.3086 31.2641 87.5267 30.3371Z" fill="#3A1B0F"/>
<path d="M146.316 30.3834C145.32 29.2768 144.55 28.2802 143.229 26.3218C142.117 24.6937 140.617 22.1443 139.945 21.0435C142.928 19.821 144.81 17.6424 144.81 14.5774C144.81 12.4394 143.854 10.7823 142.378 9.84948C141.022 8.92245 138.92 8.5922 136.568 8.5922H130.446V9.80894L133.823 9.81472C134.24 9.81472 135.062 9.82052 135.937 9.82052C138.694 9.82052 141.491 11.2169 141.491 15.0931C141.491 16.9008 140.941 18.7143 139.366 19.9716C138.364 20.7828 137.188 20.8233 135.682 20.8233H130.452V22.0459L135.531 22.0401C136.672 22.0401 137.263 22.4051 137.86 23.3669C138.891 25.1051 140.437 27.834 141.572 29.4969C142.974 31.5306 144.26 32.8227 148.494 32.9328H149.009L149.085 32.2317C147.753 31.9014 147.087 31.3104 146.316 30.3834Z" fill="#3A1B0F"/>
<path d="M64.3119 31.7508L65.4878 31.6059C66.8547 31.4611 66.9995 31.0555 66.6346 29.9083C66.3739 29.0218 65.3082 26.1364 64.2772 23.4828H56.7996C56.4289 24.4446 55.4791 27.33 54.9578 28.877C54.2569 31.0208 54.5871 31.5016 56.2436 31.6523L57.3499 31.7566V32.6083H49.4668V31.7566C49.7854 31.7276 50.0634 31.6871 50.3067 31.6523C51.9574 31.3858 52.3224 30.8411 53.4402 27.9905L60.8599 8.79499L61.804 8.46473L64.4857 15.0641C66.2176 19.7572 67.8336 24.4446 69.27 28.2107C70.4458 31.3104 70.9323 31.5654 73.2086 31.7508V32.6025H64.3004V31.7508H64.3119ZM57.2803 22.0806H63.7964L60.5587 12.9956H60.4834L57.2803 22.0806Z" fill="#3A1B0F"/>
<path d="M20.3963 0.167725C21.7632 0.283605 22.603 0.497978 23.6282 0.851412C29.7447 2.93146 33.3937 13.21 22.1339 19.0272C22.0644 19.062 21.5605 19.2995 21.4852 19.3343C21.0971 19.4965 20.6917 19.6703 20.2689 19.8557C13.2083 22.9092 9.03215 23.7667 7.13235 28.3729C4.87343 34.5667 9.68085 41.0502 20.5121 41.2066C19.1451 41.0907 18.2995 40.8763 17.2801 40.5345C11.1463 38.4602 7.49147 28.1469 18.8034 22.324C18.8787 22.2892 19.3884 22.0459 19.4637 22.0111C19.8286 21.8547 20.2167 21.6982 20.6106 21.5186C27.6827 18.471 31.8588 17.625 33.7586 13.013C36.0291 6.83083 31.2275 0.33575 20.3963 0.167725Z" fill="#3A1B0F"/>
<path d="M20.0427 2.22462C17.4363 0.828264 14.4475 0.845637 11.9627 2.01602C11.0997 2.38684 7.10898 4.28148 4.04496 8.42998C1.63545 11.6978 0.314844 15.4465 0.0541996 19.23C-0.322287 24.5431 1.29368 29.1145 3.93488 32.7937C2.00032 29.9373 2.41738 25.557 5.85209 23.2568C10.005 20.4641 15.5944 19.8557 18.7453 18.7085C20.8073 17.9959 22.6086 16.5242 23.7265 14.4442C26.0723 10.0523 24.4216 4.58277 20.0427 2.22462Z" fill="#3A1B0F"/>
<path d="M36.9674 8.57483C38.902 11.4313 38.4907 15.8115 35.056 18.1175C30.9088 20.8871 25.3311 21.5186 22.1802 22.6542C20.1124 23.3611 18.2937 24.827 17.1816 26.9186C14.83 31.3163 16.475 36.7858 20.8596 39.144C23.4661 40.5461 26.4606 40.5287 28.9396 39.3583C29.7968 38.9817 33.7933 37.0929 36.8631 32.9386C39.2668 29.6823 40.5874 25.922 40.8539 22.1444C41.2304 16.8371 39.6144 12.254 36.9674 8.57483Z" fill="#3A1B0F"/>
</svg>
